<svg width="36" height="42" viewBox="0 0 36 42" fill="none" xmlns="http://www.w3.org/2000/svg">
<path d="M30.0461 14.3276C32.803 14.3276 35.0468 12.0846 35.0468 9.32687C35.0468 6.56913 32.8038 4.32616 30.0461 4.32616C27.2884 4.32616 25.0454 6.56913 25.0454 9.32687C25.0454 12.0846 27.2892 14.3276 30.0461 14.3276ZM30.0461 5.35827C32.2349 5.35827 34.0155 7.1389 34.0155 9.32773C34.0155 11.5166 32.2349 13.2972 30.0461 13.2972C27.8573 13.2972 26.0766 11.5166 26.0766 9.32773C26.0766 7.1389 27.8573 5.35827 30.0461 5.35827ZM28.9805 11.3232L27.1199 9.46265C26.9188 9.26155 26.9188 8.93499 27.1199 8.73304C27.321 8.53194 27.6476 8.53194 27.8487 8.73304L29.344 10.2283L32.2418 7.33054C32.4429 7.12944 32.7695 7.12944 32.9706 7.33054C33.1716 7.53163 33.1716 7.85819 32.9706 8.06015L29.7084 11.3223C29.6078 11.4229 29.4755 11.4736 29.344 11.4736C29.2134 11.4744 29.081 11.4237 28.9805 11.3232ZM30.0461 17.2211C27.2892 17.2211 25.0454 19.4641 25.0454 22.2218C25.0454 24.9795 27.2884 27.2225 30.0461 27.2225C32.8038 27.2225 35.0468 24.9795 35.0468 22.2218C35.0468 19.4641 32.8038 17.2211 30.0461 17.2211ZM30.0461 26.1912C27.8573 26.1912 26.0766 24.4106 26.0766 22.2218C26.0766 20.033 27.8573 18.2523 30.0461 18.2523C32.2349 18.2523 34.0155 20.033 34.0155 22.2218C34.0155 24.4106 32.2349 26.1912 30.0461 26.1912ZM32.9723 20.2263C33.1734 20.4274 33.1734 20.754 32.9723 20.9559L29.7101 24.2181C29.6095 24.3187 29.4772 24.3694 29.3457 24.3694C29.2134 24.3694 29.0819 24.3187 28.9813 24.2181L27.1208 22.3576C26.9197 22.1565 26.9197 21.8299 27.1208 21.628C27.3219 21.4269 27.6484 21.4269 27.8495 21.628L29.3448 23.1233L32.2427 20.2255C32.4446 20.0244 32.7712 20.0244 32.9723 20.2263ZM30.0461 30.116C27.2892 30.116 25.0454 32.359 25.0454 35.1167C25.0454 37.8744 27.2884 40.1174 30.0461 40.1174C32.8038 40.1174 35.0468 37.8744 35.0468 35.1167C35.0468 32.359 32.8038 30.116 30.0461 30.116ZM30.0461 39.0853C27.8573 39.0853 26.0766 37.3047 26.0766 35.1159C26.0766 32.927 27.8573 31.1464 30.0461 31.1464C32.2349 31.1464 34.0155 32.927 34.0155 35.1159C34.0155 37.3047 32.2349 39.0853 30.0461 39.0853ZM32.9723 33.1204C33.1734 33.3215 33.1734 33.648 32.9723 33.85L29.7101 37.1122C29.6138 37.2084 29.4823 37.2634 29.3457 37.2634C29.2091 37.2634 29.0776 37.2093 28.9813 37.1122L27.1208 35.2516C26.9197 35.0505 26.9197 34.724 27.1208 34.522C27.3219 34.3209 27.6484 34.3209 27.8495 34.522L29.3448 36.0173L32.2427 33.1195C32.4446 32.9193 32.7712 32.9193 32.9723 33.1204ZM16.6863 10.2782H5.20844C2.86235 10.2782 0.953674 12.1869 0.953674 14.533V25.1076C0.953674 26.4662 2.05969 27.5723 3.41836 27.5723C3.95289 27.5723 4.44789 27.4004 4.8518 27.1108V38.4064C4.8518 40.2291 6.33508 41.7124 8.15782 41.7124C9.32914 41.7124 10.3604 41.0997 10.9482 40.1776C11.5352 41.0997 12.5664 41.7124 13.7386 41.7124C15.5613 41.7124 17.0446 40.2291 17.0446 38.4064V27.1108C17.4485 27.4012 17.9435 27.5723 18.4781 27.5723C19.8367 27.5723 20.9427 26.4662 20.9427 25.1076V14.533C20.941 12.1869 19.0323 10.2782 16.6863 10.2782ZM19.9098 25.1076C19.9098 25.8982 19.267 26.541 18.4763 26.541C17.6857 26.541 17.0429 25.8982 17.0429 25.1076V16.2835C17.0429 15.9991 16.8117 15.7679 16.5273 15.7679C16.2428 15.7679 16.0116 15.9991 16.0116 16.2835V25.1076V38.4055C16.0116 39.6594 14.9916 40.6803 13.7369 40.6803C12.4831 40.6803 11.4621 39.6602 11.4621 38.4055V24.5816C11.4621 24.2972 11.2309 24.066 10.9465 24.066C10.662 24.066 10.4309 24.2972 10.4309 24.5816V38.4055C10.4309 39.6594 9.41078 40.6803 8.1561 40.6803C6.90227 40.6803 5.88133 39.6602 5.88133 38.4055V25.1076V16.2835C5.88133 15.9991 5.65016 15.7679 5.36571 15.7679C5.08125 15.7679 4.85008 15.9991 4.85008 16.2835V25.1076C4.85008 25.8982 4.20727 26.541 3.41664 26.541C2.62602 26.541 1.98321 25.8982 1.98321 25.1076V14.533C1.98321 12.7558 3.42953 11.3094 5.20672 11.3094H16.6845C18.4617 11.3094 19.9081 12.7558 19.9081 14.533V25.1076H19.9098ZM10.9473 9.55288C13.5014 9.55288 15.5794 7.47491 15.5794 4.92085C15.5794 2.36679 13.5014 0.288818 10.9473 0.288818C8.39328 0.288818 6.31532 2.36679 6.31532 4.92085C6.31617 7.47491 8.39328 9.55288 10.9473 9.55288ZM10.9473 1.32093C12.9325 1.32093 14.5481 2.93569 14.5481 4.92171C14.5481 6.90773 12.9334 8.52249 10.9473 8.52249C8.96133 8.52249 7.34657 6.90773 7.34657 4.92171C7.34657 2.93569 8.96219 1.32093 10.9473 1.32093Z" fill="black"/>
</svg>
