<svg width="169" height="60" viewBox="0 0 169 60" fill="none" xmlns="http://www.w3.org/2000/svg">
<g clip-path="url(#clip0_680_16962)">
<path d="M25.2992 0.51709V30.2644H18.9618V18.4489H7.63279V30.2644H1.28906V0.51709H7.62647V12.1557H18.9554V0.51709H25.2929H25.2992Z" fill="#132D46"/>
<path d="M50.8573 23.9712V30.2644H31.5103V0.51709H50.6488V6.81027H37.8477V12.1557H49.2967V18.4489H37.8477V23.9649H50.851L50.8573 23.9712Z" fill="#132D46"/>
<path d="M80.4213 0.51709V30.2644H74.0017L62.3063 12.0672V30.2644H55.9689V0.51709H62.3505L74.0902 18.7079V0.51709H80.4276H80.4213Z" fill="#132D46"/>
<path d="M106.965 6.81027H99.1113V30.2644H92.7739V6.81027H84.92V0.51709H106.965V6.81027Z" fill="#132D46"/>
<path d="M108.229 15.3908C108.229 6.63971 114.648 -0.000976562 123.159 -0.000976562C131.67 -0.000976562 138.083 6.63971 138.083 15.3908C138.083 24.1418 131.62 30.7825 123.159 30.7825C114.699 30.7825 108.229 24.1418 108.229 15.3908ZM131.582 15.3908C131.582 10.2602 127.942 6.42489 123.159 6.42489C118.376 6.42489 114.737 10.2602 114.737 15.3908C114.737 20.5213 118.376 24.3566 123.159 24.3566C127.942 24.3566 131.582 20.5213 131.582 15.3908Z" fill="#132D46"/>
<path d="M167.325 0.51709V30.2644H160.906L149.21 12.0672V30.2644H142.873V0.51709H149.255L160.994 18.7079V0.51709H167.332H167.325Z" fill="#132D46"/>
<path d="M1.1499 52.1835C1.1499 47.7858 4.31545 44.4497 8.5109 44.4497C11.1015 44.4497 13.3192 45.7703 14.6145 47.8048L14.1596 48.1081C12.9654 46.1999 10.9119 44.9868 8.50458 44.9868C4.61873 44.9868 1.69961 48.0828 1.69961 52.1772C1.69961 56.2715 4.61873 59.3676 8.50458 59.3676C10.9119 59.3676 12.9654 58.1544 14.1596 56.2463L14.6145 56.5495C13.3192 58.5841 11.1015 59.9046 8.5109 59.9046C4.31545 59.9046 1.1499 56.5685 1.1499 52.1709V52.1835Z" fill="#132D46" stroke="#132D46" stroke-width="0.157961" stroke-miterlimit="10"/>
<path d="M20.9392 52.1835C20.9392 47.7858 24.1048 44.4497 28.3002 44.4497C32.4957 44.4497 35.6359 47.7858 35.6359 52.1835C35.6359 56.5811 32.4704 59.9173 28.3002 59.9173C24.13 59.9173 20.9392 56.5811 20.9392 52.1835ZM35.0799 52.1835C35.0799 48.0891 32.1608 44.9931 28.2939 44.9931C24.427 44.9931 21.4889 48.0891 21.4889 52.1835C21.4889 56.2778 24.408 59.3739 28.2939 59.3739C32.1797 59.3739 35.0799 56.2778 35.0799 52.1835Z" fill="#132D46" stroke="#132D46" stroke-width="0.157961" stroke-miterlimit="10"/>
<path d="M54.2755 44.7148V59.6643H53.6373L43.4204 45.4731V59.6643H42.8833V44.7148H43.5404L53.7384 58.8619V44.7148H54.2755Z" fill="#132D46" stroke="#132D46" stroke-width="0.157961" stroke-miterlimit="10"/>
<path d="M61.4089 57.5605L61.7375 57.1688C62.7042 58.4009 64.4292 59.3992 66.5079 59.3992C68.9721 59.3992 70.8866 57.9902 70.8866 55.9556C70.8866 53.2703 67.5757 52.5753 66.3626 52.3162C64.4292 51.9245 61.7375 50.9261 61.7375 48.3103C61.7375 45.9914 63.7531 44.4561 66.3816 44.4561C68.1886 44.4561 69.7746 45.1953 70.6781 46.3832L70.3685 46.7497C69.6924 45.7956 68.1886 44.9742 66.3816 44.9742C64.0564 44.9742 62.2935 46.339 62.2935 48.2914C62.2935 50.6734 64.9662 51.4569 66.5079 51.7602C68.0307 52.0635 71.4426 52.9986 71.4426 55.943C71.4426 58.2808 69.2817 59.9299 66.5079 59.9299C64.4734 59.9299 62.5589 59.0201 61.4089 57.5668V57.5605Z" fill="#132D46" stroke="#132D46" stroke-width="0.157961" stroke-miterlimit="10"/>
<path d="M77.9949 54.0034V44.709H78.5319V54.0034C78.5319 57.0552 80.7118 59.3741 83.612 59.3741C86.5121 59.3741 88.711 57.0552 88.711 54.0034V44.709H89.2228V54.0034C89.2228 57.3838 86.8154 59.9175 83.612 59.9175C80.4085 59.9175 78.0012 57.3838 78.0012 54.0034H77.9949Z" fill="#132D46" stroke="#132D46" stroke-width="0.157961" stroke-miterlimit="10"/>
<path d="M105.366 59.1403V59.6584H96.9187V44.709H97.4558V59.134H105.373L105.366 59.1403Z" fill="#132D46" stroke="#132D46" stroke-width="0.157961" stroke-miterlimit="10"/>
<path d="M118.768 45.233H113.631V59.6643H113.094V45.233H107.957V44.7148H118.768V45.233Z" fill="#132D46" stroke="#132D46" stroke-width="0.157961" stroke-miterlimit="10"/>
<path d="M125.592 44.7148H126.129V59.6643H125.592V44.7148Z" fill="#132D46" stroke="#132D46" stroke-width="0.157961" stroke-miterlimit="10"/>
<path d="M145.609 44.7148V59.6643H144.97L134.754 45.4731V59.6643H134.216V44.7148H134.874L145.072 58.8619V44.7148H145.609Z" fill="#132D46" stroke="#132D46" stroke-width="0.157961" stroke-miterlimit="10"/>
<path d="M167.357 52.3162V52.4868C167.357 56.7517 164.292 59.9173 160.204 59.9173C156.116 59.9173 152.869 56.5811 152.869 52.1835C152.869 47.7858 156.034 44.4497 160.23 44.4497C162.82 44.4497 165.038 45.7513 166.333 47.7858L165.922 48.1081C164.728 46.1999 162.675 44.9868 160.23 44.9868C156.363 44.9868 153.425 48.0828 153.425 52.1772C153.425 56.2715 156.363 59.3676 160.23 59.3676C163.888 59.3676 166.706 56.619 166.807 52.828H160.988V52.3099H167.357V52.3162Z" fill="#132D46" stroke="#132D46" stroke-width="0.157961" stroke-miterlimit="10"/>
<path d="M0 37.7583H168.09" stroke="#132D46" stroke-width="0.473884" stroke-miterlimit="10"/>
</g>
<defs>
<clipPath id="clip0_680_16962">
<rect width="168.09" height="60" fill="white"/>
</clipPath>
</defs>
</svg>
