<svg width="69" height="56" viewBox="0 0 69 56" fill="none" xmlns="http://www.w3.org/2000/svg">
<path d="M30.7109 21.4297C30.7109 25.8984 29.7292 29.9948 27.7656 33.7188C25.8021 37.375 23.5 40.5573 20.8594 43.2656C18.151 46.0417 15.1719 48.5469 11.9219 50.7812C8.67188 52.9479 6.0651 54.5391 4.10156 55.5547L0.648438 49.5625C3.42448 47.9375 6.0651 46.2786 8.57031 44.5859C11.1432 42.8255 13.1068 41.1667 14.4609 39.6094C16.2891 37.5781 17.7448 35.4792 18.8281 33.3125C19.9115 31.0781 20.5885 28.1667 20.8594 24.5781H15.9844C11.7188 24.5781 8.40104 23.4948 6.03125 21.3281C3.66146 19.1615 2.47656 16.1484 2.47656 12.2891C2.47656 9.51302 3.5599 6.90625 5.72656 4.46875C7.89323 1.96354 10.8385 0.710938 14.5625 0.710938C20.3177 0.710938 24.4479 2.64062 26.9531 6.5C29.4583 10.2917 30.7109 15.2682 30.7109 21.4297ZM68.2891 21.4297C68.2891 25.8984 67.3073 29.9948 65.3438 33.7188C63.3802 37.375 61.0781 40.5573 58.4375 43.2656C55.7292 46.0417 52.75 48.5469 49.5 50.7812C46.25 52.9479 43.6432 54.5391 41.6797 55.5547L38.2266 49.5625C41.0026 47.9375 43.6432 46.2786 46.1484 44.5859C48.7214 42.8255 50.6849 41.1667 52.0391 39.6094C53.8672 37.5781 55.3229 35.4792 56.4062 33.3125C57.4896 31.0781 58.1667 28.1667 58.4375 24.5781H53.5625C49.2969 24.5781 45.9792 23.4948 43.6094 21.3281C41.2396 19.1615 40.0547 16.1484 40.0547 12.2891C40.0547 9.51302 41.138 6.90625 43.3047 4.46875C45.4714 1.96354 48.4167 0.710938 52.1406 0.710938C57.8958 0.710938 62.026 2.64062 64.5312 6.5C67.0365 10.2917 68.2891 15.2682 68.2891 21.4297Z" fill="white"/>
</svg>
