<svg width="36" height="37" viewBox="0 0 36 37" fill="none" xmlns="http://www.w3.org/2000/svg">
<g clip-path="url(#clip0_552_1374)">
<path d="M33.9657 7.38837C33.9502 7.18327 33.7889 7.0193 33.584 7.00045C30.7406 6.73875 28.3871 4.27845 27.9882 1.15038C27.9613 0.939938 27.7822 0.782227 27.57 0.782227H8.43224C8.22011 0.782227 8.04109 0.939797 8.01409 1.15017C7.61324 4.2783 5.25981 6.73875 2.4182 7.00045C2.21373 7.0193 2.05265 7.18263 2.03662 7.38731C1.97495 8.17552 1.94366 8.99191 1.94366 9.81394C1.94366 15.5426 3.47683 21.0704 6.3775 25.7998C9.21229 30.4218 13.1701 34.0106 17.8231 36.1782C17.8796 36.2045 17.9403 36.2177 18.0011 36.2177C18.062 36.2177 18.1227 36.2045 18.1792 36.1782C22.8313 34.0106 26.7886 30.4218 29.623 25.7998C32.5235 21.0703 34.0566 15.5424 34.0566 9.81401C34.0566 9.00084 34.026 8.18466 33.9657 7.38837ZM18.0011 35.3303C8.75181 30.9303 2.78671 20.9385 2.78671 9.81394C2.78671 9.13282 2.80872 8.45599 2.85231 7.79681C4.30483 7.57934 5.67438 6.85948 6.74151 5.74559C7.80056 4.63999 8.52161 3.18853 8.79463 1.6252H27.2074C27.4795 3.18839 28.2002 4.63999 29.2592 5.74559C30.3261 6.85934 31.696 7.57912 33.1491 7.79674C33.1919 8.46197 33.2135 9.13887 33.2135 9.81387C33.2135 20.938 27.2492 30.9299 18.0011 35.3301V35.3303ZM31.918 8.52764C29.3721 7.75434 27.3482 5.65334 26.5041 2.90749C26.4498 2.73052 26.2863 2.60986 26.1012 2.60986H9.89917C9.71411 2.60986 9.55063 2.73059 9.49628 2.90749C8.65225 5.65313 6.62901 7.75413 4.08426 8.52764C3.91171 8.58009 3.79162 8.73654 3.78557 8.91675C3.77601 9.19948 3.77137 9.49289 3.77137 9.81394C3.77137 14.8005 5.03369 19.6937 7.42178 23.9645C9.91098 28.4161 13.5029 31.9342 17.809 34.1384C17.8694 34.1692 17.9353 34.1847 18.0011 34.1847C18.067 34.1847 18.1329 34.1692 18.1932 34.1384C22.4992 31.9342 26.0908 28.4162 28.5795 23.9645C30.967 19.694 32.2289 14.8008 32.2289 9.81394C32.2289 9.51785 32.2249 9.21698 32.2169 8.91956C32.2119 8.73823 32.0916 8.58037 31.918 8.52764ZM18.0011 33.2884C9.86219 29.0213 4.61441 19.8334 4.61441 9.81394C4.61441 9.6127 4.61631 9.42286 4.62011 9.24012C7.20416 8.34982 9.26179 6.21802 10.2056 3.45291H25.7948C26.7385 6.21766 28.7963 8.34926 31.3808 9.23962C31.3842 9.43158 31.3859 9.62381 31.3859 9.81394C31.3859 19.834 26.1389 29.022 18.0011 33.2884ZM17.5796 7.61752V5.50083C17.5796 5.26795 17.7683 5.0793 18.0011 5.0793C18.2339 5.0793 18.4227 5.26802 18.4227 5.50083V7.61752C18.4227 7.85039 18.2339 8.03904 18.0011 8.03904C17.7683 8.03904 17.5796 7.85032 17.5796 7.61752ZM13.317 9.04802L12.2586 7.21441C12.1423 7.01276 12.2114 6.75499 12.413 6.63863C12.6146 6.52226 12.8725 6.59137 12.9888 6.79296L14.0471 8.62657C14.1635 8.82823 14.0944 9.08599 13.8928 9.20236C13.8264 9.24068 13.7539 9.25889 13.6824 9.25889C13.5367 9.25889 13.395 9.1833 13.3169 9.04802H13.317ZM8.35624 10.783C8.47267 10.5813 8.73058 10.5124 8.93209 10.6289L10.7637 11.6872C10.9653 11.8037 11.0343 12.0615 10.9178 12.2631C10.8397 12.3983 10.6981 12.4738 10.5524 12.4738C10.4809 12.4738 10.4084 12.4556 10.3419 12.4172L8.51029 11.3588C8.3087 11.2423 8.23973 10.9845 8.35624 10.783ZM9.45065 16.8227H7.33396C7.10116 16.8227 6.91244 16.634 6.91244 16.4012C6.91244 16.1684 7.10116 15.9796 7.33396 15.9796H9.45065C9.68345 15.9796 9.87217 16.1684 9.87217 16.4012C9.87217 16.634 9.68345 16.8227 9.45065 16.8227ZM11.0356 20.5075C11.1519 20.7091 11.0828 20.9669 10.8812 21.0833L9.04755 22.1416C8.98117 22.1799 8.90868 22.1981 8.83717 22.1981C8.69148 22.1981 8.54981 22.1226 8.47169 21.9873C8.35532 21.7856 8.42444 21.5279 8.62602 21.4115L10.4597 20.3531C10.6614 20.2369 10.9192 20.3058 11.0356 20.5075ZM23.7416 7.21434L22.6833 9.04795C22.6052 9.18323 22.4635 9.25882 22.3178 9.25882C22.2463 9.25882 22.1738 9.24061 22.1074 9.20229C21.9057 9.08592 21.8366 8.82816 21.9531 8.6265L23.0114 6.79289C23.1278 6.59116 23.3855 6.52212 23.5872 6.63855C23.7888 6.75492 23.858 7.01269 23.7415 7.21434H23.7416ZM25.0822 12.2629C24.9659 12.0612 25.035 11.8034 25.2366 11.6871L27.0703 10.6287C27.2719 10.5125 27.5298 10.5815 27.646 10.7831C27.7624 10.9847 27.6933 11.2425 27.4917 11.3588L25.658 12.4172C25.5917 12.4555 25.5192 12.4737 25.4477 12.4737C25.302 12.4737 25.1603 12.3981 25.0822 12.2629H25.0822ZM29.0877 16.4011C29.0877 16.634 28.899 16.8226 28.6662 16.8226H26.5495C26.3167 16.8226 26.128 16.6339 26.128 16.4011C26.128 16.1683 26.3167 15.9796 26.5495 15.9796H28.6662C28.899 15.9796 29.0877 16.1683 29.0877 16.4011ZM27.5285 21.9872C27.4504 22.1225 27.3087 22.1981 27.163 22.1981C27.0915 22.1981 27.0191 22.1799 26.9526 22.1415L25.1189 21.0832C24.9173 20.9668 24.8482 20.7091 24.9646 20.5074C25.081 20.3058 25.3387 20.2366 25.5404 20.3531L27.3741 21.4114C27.5757 21.5278 27.6449 21.7856 27.5284 21.9872H27.5285ZM23.6342 13.339C23.6293 13.102 23.6246 12.878 23.6246 12.67C23.6246 11.7198 22.8526 10.9469 21.9036 10.9469C21.545 10.9469 21.2118 11.0571 20.9356 11.2453C20.7078 10.561 20.0612 10.0659 19.3005 10.0659C18.5399 10.0659 17.8949 10.5609 17.6674 11.2452C17.3913 11.0571 17.058 10.9469 16.6995 10.9469C15.9134 10.9469 15.249 11.4763 15.043 12.1972C14.7716 12.0181 14.4471 11.9135 14.0985 11.9135C13.1485 11.9135 12.3755 12.6865 12.3755 13.6366V18.3483C12.3755 19.6538 12.8818 20.7802 13.8424 21.6187V24.9715C13.8424 25.2044 14.0312 25.393 14.264 25.393H21.7361C21.9689 25.393 22.1577 25.2043 22.1577 24.9715V21.6187C22.2155 21.5682 22.2716 21.5165 22.3261 21.4639C22.3484 21.4424 22.3694 21.4201 22.3912 21.3983C22.4223 21.367 22.4539 21.3359 22.4839 21.3038C22.5103 21.2758 22.5352 21.2469 22.5607 21.2183C22.5843 21.1918 22.6084 21.1655 22.6312 21.1385C22.6587 21.1061 22.6848 21.0729 22.7112 21.0399C22.7303 21.0159 22.7497 20.9921 22.7683 20.9678C22.7955 20.9322 22.8215 20.8958 22.8474 20.8595C22.8635 20.8369 22.8798 20.8145 22.8954 20.7916C22.9215 20.7534 22.9465 20.7147 22.9712 20.6758C22.9851 20.6539 22.9991 20.632 23.0126 20.6099C23.0371 20.5697 23.0605 20.5291 23.0836 20.4882C23.0959 20.4664 23.1081 20.4445 23.12 20.4225C23.1424 20.3808 23.1641 20.3388 23.1851 20.2963C23.1961 20.274 23.2069 20.2517 23.2175 20.2291C23.2376 20.1865 23.2571 20.1436 23.2758 20.1002C23.2859 20.0768 23.2955 20.0531 23.3052 20.0295C23.3228 19.9865 23.34 19.9434 23.3561 19.8997C23.3654 19.8745 23.3741 19.849 23.3829 19.8236C23.3978 19.7808 23.4125 19.738 23.426 19.6946C23.4346 19.6668 23.4425 19.6386 23.4506 19.6104C23.4626 19.5687 23.4748 19.5269 23.4855 19.4845C23.4935 19.4533 23.5004 19.4216 23.5077 19.3901C23.5169 19.35 23.5266 19.31 23.5347 19.2694C23.5419 19.2336 23.5477 19.1973 23.5541 19.1612C23.5607 19.1239 23.5679 19.0867 23.5735 19.049C23.5798 19.0066 23.5844 18.9635 23.5896 18.9207C23.5936 18.8881 23.5984 18.8559 23.6016 18.8231C23.6089 18.749 23.6145 18.6743 23.6183 18.5989C23.6183 18.5989 23.6183 18.5988 23.6183 18.5987C23.6225 18.516 23.6247 18.4327 23.6247 18.3485V16.76C23.6247 16.7437 23.6236 16.7278 23.6219 16.7121L23.6247 14.9434C23.6248 14.9084 23.6235 14.8736 23.6215 14.8388C23.6557 14.3805 23.6451 13.8515 23.6344 13.3391L23.6342 13.339ZM21.9036 11.79C22.3877 11.79 22.7815 12.1847 22.7815 12.67C22.7815 12.8869 22.7863 13.115 22.7913 13.3566C22.7922 13.3984 22.793 13.4404 22.7939 13.4825C22.5347 13.3278 22.2382 13.2451 21.9294 13.2451H21.0235V12.6701C21.0235 12.1849 21.4183 11.7901 21.9035 11.7901L21.9036 11.79ZM18.4226 11.787C18.4226 11.3029 18.8165 10.9091 19.3006 10.9091C19.7847 10.9091 20.1805 11.3029 20.1805 11.787V13.245H18.4226V11.787ZM15.8196 12.67C15.8196 12.1848 16.2143 11.79 16.6995 11.79C17.1847 11.79 17.5795 12.1847 17.5795 12.67V13.2974C16.8325 13.4859 16.278 14.1633 16.278 14.9681C16.278 15.1721 16.3139 15.3679 16.3793 15.5498C16.0521 15.4216 15.8196 15.1042 15.8196 14.7328V12.67ZM13.2186 13.6367C13.2186 13.1515 13.6133 12.7567 14.0985 12.7567C14.5837 12.7567 14.9765 13.1514 14.9765 13.6367V14.7329C14.9765 15.217 14.5826 15.6109 14.0985 15.6109C13.6144 15.6109 13.2186 15.217 13.2186 14.7329V13.6367ZM14.5273 21.0926C13.6589 20.3979 13.2186 19.4746 13.2186 18.3484V16.2118C13.4763 16.3654 13.7772 16.454 14.0985 16.454C14.6171 16.454 15.0825 16.2231 15.3982 15.8591C15.7144 16.2231 16.1803 16.454 16.6995 16.454C16.8245 16.454 16.9463 16.4393 17.0647 16.4134C17.3345 16.5888 17.656 16.6911 18.0011 16.6911H20.0819C20.1354 16.6911 20.1805 16.7354 20.1805 16.7878V17.3C20.1805 17.3225 20.1771 17.3339 20.1639 17.354L17.6486 21.1906C17.521 21.3854 17.5753 21.6466 17.77 21.7743C17.9647 21.902 18.226 21.8476 18.3537 21.6529L20.8685 17.817C20.9715 17.6606 21.0237 17.4867 21.0237 17.3V16.7877C21.0237 16.2695 20.6013 15.848 20.082 15.848H18.0011C17.7889 15.848 17.594 15.7725 17.4418 15.6469C17.4346 15.64 17.4272 15.6331 17.4196 15.6267C17.2371 15.4654 17.1211 15.2302 17.1211 14.9681C17.1211 14.5288 17.4449 14.1648 17.8661 14.0995C17.9085 14.1138 17.9538 14.1219 18.0011 14.1219C18.0599 14.1219 18.1159 14.1098 18.1668 14.088H20.4363C20.4873 14.1098 20.5432 14.1219 20.6021 14.1219C20.6609 14.1219 20.7169 14.1098 20.7678 14.088H21.9295C22.1565 14.088 22.3706 14.1774 22.5324 14.3397C22.6937 14.5014 22.7822 14.7149 22.7815 14.9414L22.7756 18.5664C22.7657 18.7525 22.7429 18.9326 22.708 19.1069C22.7066 19.114 22.7055 19.1213 22.704 19.1284C22.6939 19.1769 22.6824 19.2246 22.6705 19.2722C22.6672 19.2852 22.6643 19.2983 22.6609 19.3113C22.6492 19.3554 22.6361 19.3989 22.6228 19.4423C22.6179 19.4581 22.6133 19.4742 22.6082 19.4899C22.5949 19.5308 22.5805 19.5711 22.5656 19.6113C22.5591 19.629 22.5528 19.6468 22.5459 19.6644C22.5311 19.7025 22.5153 19.74 22.499 19.7774C22.4907 19.7965 22.4824 19.8157 22.4737 19.8347C22.4575 19.8702 22.4406 19.9051 22.4232 19.9399C22.4129 19.9604 22.4025 19.9808 22.3917 20.001C22.3744 20.0339 22.3564 20.0663 22.3379 20.0985C22.3254 20.1203 22.3126 20.1419 22.2996 20.1633C22.2813 20.1935 22.2627 20.2234 22.2434 20.2531C22.2283 20.2762 22.2127 20.299 22.197 20.3217C22.1781 20.3492 22.1591 20.3766 22.1392 20.4036C22.1212 20.4281 22.1025 20.4521 22.0838 20.4763C22.0646 20.5009 22.0456 20.5257 22.0256 20.55C22.0042 20.576 21.9817 20.6016 21.9593 20.6273C21.9404 20.649 21.9218 20.6707 21.9023 20.6921C21.8763 20.7203 21.8492 20.748 21.8221 20.7756C21.8045 20.7937 21.7873 20.812 21.7692 20.8298C21.7365 20.8619 21.7023 20.8931 21.6681 20.9244C21.6539 20.9372 21.6405 20.9505 21.6261 20.9632C21.5765 21.0071 21.5254 21.0502 21.4727 21.0924C21.4485 21.1117 21.427 21.1335 21.4079 21.1572C21.4073 21.1579 21.4065 21.1586 21.4058 21.1595C21.3999 21.1669 21.3948 21.1748 21.3895 21.1826C21.386 21.1877 21.382 21.1926 21.3787 21.1979C21.3762 21.2018 21.3742 21.2061 21.3719 21.2102C21.3664 21.2197 21.3608 21.2291 21.3561 21.2389C21.3549 21.2414 21.3541 21.244 21.353 21.2465C21.3477 21.2582 21.3425 21.27 21.3382 21.2822C21.337 21.2858 21.3362 21.2897 21.335 21.2935C21.3277 21.3164 21.3223 21.3399 21.319 21.364C21.3164 21.3829 21.3146 21.4021 21.3146 21.4215V24.5497H14.6856V21.4215C14.6856 21.2935 14.6273 21.1724 14.5274 21.0923L14.5273 21.0926Z" fill="white"/>
</g>
<defs>
<clipPath id="clip0_552_1374">
<rect width="36" height="36" fill="white" transform="translate(0 0.5)"/>
</clipPath>
</defs>
</svg>
