<svg width="88" height="83" viewBox="0 0 88 83" fill="none" xmlns="http://www.w3.org/2000/svg">
<path d="M85.6252 15.6239H63.8646V10.5795C63.8618 7.94665 62.8148 5.42238 60.9531 3.56056C59.0914 1.69874 56.5673 0.65144 53.9344 0.648438H34.0656C31.4327 0.65144 28.9086 1.69875 27.047 3.56057C25.1853 5.42239 24.1383 7.94667 24.1355 10.5795V15.6248H2.3748C1.7454 15.6254 1.14193 15.8756 0.696751 16.3205C0.251567 16.7655 0.00100082 17.3688 0 17.9982L0 46.5738C0.000773473 47.2033 0.251239 47.8069 0.696447 48.252C1.14166 48.6971 1.74525 48.9474 2.3748 48.9481H3.19688V79.9765C3.1976 80.6061 3.44804 81.2097 3.89324 81.6549C4.33844 82.1001 4.94206 82.3506 5.57167 82.3513H82.4276C83.0574 82.3507 83.6612 82.1004 84.1065 81.6552C84.5519 81.2099 84.8024 80.6062 84.8031 79.9765V48.9481H85.6259C86.2554 48.9472 86.8588 48.6966 87.3039 48.2515C87.7489 47.8063 87.9993 47.2028 88 46.5733V17.9987C87.9993 17.3691 87.7489 16.7654 87.3037 16.3202C86.8585 15.875 86.2548 15.6246 85.6252 15.6239ZM26.5461 10.5795C26.5481 8.58576 27.3409 6.6742 28.7507 5.26428C30.1604 3.85437 32.0718 3.06126 34.0656 3.05898H53.9344C55.9282 3.06121 57.8397 3.8543 59.2494 5.26422C60.6592 6.67414 61.4521 8.58573 61.4541 10.5795V15.6248H57.6672V10.6139C57.6658 9.51631 57.2292 8.46404 56.4531 7.68793C55.6769 6.91182 54.6246 6.47524 53.527 6.47397H34.4731C33.3755 6.4752 32.3232 6.91175 31.547 7.68787C30.7708 8.46398 30.3342 9.51628 30.3328 10.6139V15.6236H26.5461V10.5795ZM55.2568 15.6248H32.7432V10.6139C32.7437 10.1553 32.9261 9.71555 33.2505 9.39124C33.5748 9.06692 34.0145 8.8845 34.4731 8.884H53.527C53.9856 8.88455 54.4253 9.06699 54.7496 9.3913C55.0739 9.71561 55.2563 10.1553 55.2568 10.6139V15.6248ZM82.3919 79.9407H5.60811V48.9481H11.5206V50.1244C11.522 51.3341 12.0031 52.4938 12.8585 53.3492C13.7139 54.2046 14.8737 54.6858 16.0834 54.6871H16.2016C17.4113 54.6858 18.5711 54.2046 19.4264 53.3492C20.2818 52.4938 20.7629 51.3341 20.7642 50.1244V48.9212H26.7845C26.5116 51.3447 26.7534 53.7984 27.4941 56.1219C28.2348 58.4454 29.4578 60.5864 31.0828 62.4047C32.708 64.2231 34.6986 65.6779 36.9247 66.6739C39.1507 67.6699 41.562 68.1848 44.0007 68.1848C46.4394 68.1848 48.8507 67.6699 51.0767 66.6739C53.3027 65.6779 55.2934 64.2231 56.9185 62.4047C58.5436 60.5864 59.7665 58.4454 60.5072 56.1219C61.2479 53.7984 61.4898 51.3447 61.2169 48.9212H67.2372V50.1244C67.2385 51.3341 67.7196 52.4938 68.575 53.3492C69.4303 54.2046 70.5901 54.6858 71.7998 54.6871H71.918C73.1277 54.6858 74.2875 54.2046 75.1429 53.3492C75.9982 52.4938 76.4794 51.3341 76.4808 50.1244V48.9481H82.3933L82.3919 79.9407ZM13.9305 50.1244V43.1646H18.3532V50.1244C18.3525 50.695 18.1255 51.242 17.722 51.6454C17.3185 52.0489 16.7715 52.2758 16.2009 52.2764H16.0827C15.5121 52.2758 14.9651 52.0489 14.5616 51.6454C14.1581 51.242 13.9312 50.695 13.9305 50.1244ZM58.9139 50.8538C58.9139 53.8035 58.0392 56.6869 56.4004 59.1395C54.7616 61.5921 52.4324 63.5036 49.7072 64.6324C46.982 65.7611 43.9833 66.0565 41.0903 65.481C38.1973 64.9055 35.5399 63.4851 33.4542 61.3993C31.3685 59.3136 29.9481 56.6562 29.3726 53.7631C28.7972 50.8701 29.0925 47.8714 30.2213 45.1463C31.3501 42.4211 33.2617 40.0919 35.7143 38.4531C38.1669 36.8144 41.0503 35.9397 44 35.9397C47.9541 35.9442 51.7449 37.517 54.5408 40.3129C57.3368 43.1089 58.9095 46.8997 58.9139 50.8538ZM69.6468 50.1244V43.1646H74.0695V50.1244C74.0688 50.695 73.8419 51.242 73.4384 51.6454C73.0349 52.0489 72.4879 52.2758 71.9173 52.2764H71.7991C71.2285 52.2758 70.6814 52.0489 70.278 51.6454C69.8745 51.242 69.6475 50.695 69.6468 50.1244ZM85.5895 46.5375H76.4801V42.281C76.4794 41.8763 76.3182 41.4883 76.032 41.2021C75.7458 40.9159 75.3577 40.7548 74.953 40.7541H68.7634C68.3586 40.7545 67.9705 40.9156 67.6842 41.2018C67.3979 41.4881 67.2369 41.8762 67.2365 42.281V46.5116H60.774C59.8113 42.7953 57.6417 39.5039 54.6058 37.1542C51.5699 34.8045 47.8397 33.5296 44.0007 33.5296C40.1617 33.5296 36.4315 34.8045 33.3956 37.1542C30.3597 39.5039 28.1901 42.7953 27.2274 46.5116H20.7649V42.281C20.7645 41.8762 20.6034 41.4881 20.3172 41.2018C20.0309 40.9156 19.6428 40.7545 19.238 40.7541H13.047C12.6423 40.7548 12.2543 40.9159 11.968 41.2021C11.6818 41.4883 11.5206 41.8763 11.5199 42.281V46.5375H2.41055V18.0343H85.5895V46.5375Z" fill="black"/>
</svg>
