<svg width="88" height="88" viewBox="0 0 88 88" fill="none" xmlns="http://www.w3.org/2000/svg">
<g clip-path="url(#clip0_552_815)">
<path fill-rule="evenodd" clip-rule="evenodd" d="M37.1692 87.9999C35.6227 87.9999 34.1276 87.7937 32.6326 87.4328C27.5289 86.0409 23.1985 82.5353 19.9507 77.1223C14.0738 67.0181 12.888 52.0678 16.806 36.963C23.0954 12.9395 40.3139 -3.35102 55.2641 0.566966C60.3163 1.85578 64.6982 5.46445 67.946 10.8259C73.7715 20.8271 75.0087 35.8804 70.9876 51.0368C65.42 72.5857 50.8822 87.9999 37.1692 87.9999ZM50.676 2.42285C38.0972 2.42285 24.5904 17.1153 19.229 37.5301C15.5172 51.7585 16.5998 66.451 22.1159 75.8335C24.9513 80.6279 28.7662 83.8241 33.1997 84.9583C46.8095 88.5154 62.6361 72.9466 68.5131 50.4182C72.2249 36.0866 71.1423 21.3941 65.6262 12.1147C62.8939 7.32033 59.0275 4.17564 54.594 2.93838C53.3051 2.68062 52.0163 2.42285 50.676 2.42285Z" fill="black"/>
<path fill-rule="evenodd" clip-rule="evenodd" d="M60.4709 81.2465C49.3356 81.2465 35.6226 75.1118 24.2811 63.9249C6.7017 46.5517 1.13404 23.4047 11.96 12.4756C22.8376 1.49491 46.0362 6.75326 63.6156 24.0749C72.0702 32.3748 77.9987 42.2213 80.4732 51.9132C82.8962 61.7081 81.2465 70.1112 75.9366 75.5242C72.0702 79.3906 66.6572 81.2465 60.4709 81.2465ZM13.7128 14.2284C3.91787 24.2811 9.43398 45.7269 26.0339 62.1206C42.7369 78.5142 64.2858 83.7726 74.0807 73.7199C78.8236 68.9255 80.1639 61.4504 77.9472 52.4803C75.6789 43.3039 69.9565 33.8698 61.8628 25.8277C45.2114 9.43398 23.6109 4.22719 13.7128 14.2284Z" fill="black"/>
<path fill-rule="evenodd" clip-rule="evenodd" d="M50.4697 56.0376H37.427C36.7052 56.0376 36.1382 55.4706 36.1382 54.7488C36.1382 47.7377 34.5916 45.624 32.9935 43.5104C31.7047 41.7576 30.3643 39.9533 30.3643 35.726C30.3643 28.3024 36.4475 22.2192 43.871 22.2192C51.3977 22.2192 57.4809 28.3024 57.4809 35.726C57.4809 39.9533 56.089 41.7576 54.8001 43.5104C53.2536 45.624 51.6554 47.7377 51.6554 54.7488C51.6554 55.4706 51.0884 56.0376 50.4697 56.0376ZM38.6642 53.5631H49.1809C49.3871 46.7066 51.243 44.1806 52.8412 42.1185C54.0269 40.4688 54.9548 39.18 54.9548 35.7775C54.9548 29.6943 50.0058 24.7969 43.871 24.7969C37.7878 24.7969 32.8388 29.6943 32.8388 35.7775C32.8388 39.18 33.7667 40.4688 35.004 42.1185C36.7052 44.2321 38.5096 46.7066 38.6642 53.5631Z" fill="black"/>
<path fill-rule="evenodd" clip-rule="evenodd" d="M50.9854 59.6978C50.2636 59.6978 49.6966 59.1307 49.6966 58.409C49.6966 57.6873 50.2636 57.1202 50.9854 57.1202C51.0369 57.1202 51.1916 56.914 51.1916 56.5531C51.1916 56.1922 50.9854 56.0376 50.9854 55.986H36.9115C36.86 55.986 36.7053 56.1922 36.7053 56.5531C36.7053 56.914 36.9115 57.1202 36.9115 57.1202C37.6333 57.1202 38.1488 57.6873 38.1488 58.409C38.1488 59.1307 37.5817 59.6463 36.86 59.6463C35.365 59.6463 34.1277 58.2543 34.1277 56.5531C34.1277 54.8519 35.365 53.46 36.86 53.46H50.9854C52.4804 53.46 53.6661 54.8519 53.6661 56.5531C53.7692 58.2543 52.5319 59.6978 50.9854 59.6978Z" fill="black"/>
<path fill-rule="evenodd" clip-rule="evenodd" d="M50.676 63.3064H37.2209C35.5712 63.3064 34.1277 61.8629 34.1277 60.2133C34.1277 58.512 35.5196 57.1201 37.2209 57.1201H50.676C52.3773 57.1201 53.7692 58.512 53.7692 60.2133C53.7692 61.9145 52.3257 63.3064 50.676 63.3064ZM37.2209 59.6977C36.9115 59.6977 36.6538 59.9039 36.6538 60.2648C36.6538 60.5741 36.9115 60.8319 37.2209 60.8319H50.676C50.9854 60.8319 51.2431 60.5741 51.2431 60.2648C51.2431 59.9039 50.9854 59.6977 50.676 59.6977H37.2209Z" fill="black"/>
<path fill-rule="evenodd" clip-rule="evenodd" d="M45.3145 66.9671H42.6338C40.0046 66.9671 37.7879 64.8019 37.7879 62.0696C37.7879 61.3478 38.3549 60.7808 39.0767 60.7808C39.7984 60.7808 40.3655 61.3478 40.3655 62.0696C40.3655 63.3584 41.4481 64.441 42.7369 64.441H45.3661C46.6549 64.441 47.7375 63.3584 47.7375 62.0696C47.7375 61.3478 48.3046 60.7808 49.0263 60.7808C49.748 60.7808 50.3151 61.3478 50.3151 62.0696C50.1089 64.6987 47.8921 66.9671 45.3145 66.9671Z" fill="black"/>
</g>
<defs>
<clipPath id="clip0_552_815">
<rect width="88" height="88" fill="white"/>
</clipPath>
</defs>
</svg>
