<svg width="86" height="79" viewBox="0 0 86 79" fill="none" xmlns="http://www.w3.org/2000/svg">
<path d="M85.6413 17.3479C85.5791 16.7284 85.2054 16.2154 84.6434 15.9761L76.6732 12.5692L76.3133 3.91396C76.2882 3.30277 75.9416 2.77202 75.3857 2.4941C74.7393 2.17114 73.8577 2.24196 73.2399 2.66735L57.9744 13.2124C53.913 10.2568 49.1651 8.25277 44.1794 7.39821C35.532 5.91716 26.825 7.89389 19.6626 12.9632C12.5001 18.0325 7.74018 25.5877 6.25982 34.237C4.77911 42.8842 6.75533 51.5911 11.8241 58.7538C16.8927 65.9163 24.4464 70.6764 33.094 72.1568C34.9617 72.4764 36.8199 72.6311 38.6543 72.6311C54.3551 72.6308 68.2816 61.3077 71.0187 45.3219C71.9214 40.0302 71.5204 34.6002 69.8622 29.5484L84.718 19.2913C85.3342 18.8667 85.714 18.0677 85.6417 17.348L85.6413 17.3479ZM68.3053 44.858C65.7973 59.5045 53.0392 69.8791 38.6529 69.8779C36.9732 69.8779 35.2689 69.7362 33.5584 69.4435C25.6356 68.0869 18.7151 63.7258 14.071 57.1636C9.42679 50.6011 7.61643 42.6238 8.97304 34.7016C10.3295 26.7769 14.6906 19.8545 21.2528 15.2099C27.8152 10.5657 35.7926 8.75499 43.7145 10.1113C48.2013 10.8804 52.4758 12.6669 56.1508 15.2945C56.1285 15.5434 56.1495 15.7582 56.1629 15.8919C56.1673 15.9373 56.1728 15.9837 56.1747 16.0315C56.1818 16.2025 56.1962 16.6171 56.216 17.182C56.3719 21.6418 56.4477 23.8057 56.5355 24.9217L53.8426 26.5966C53.5309 26.2385 53.2061 25.8892 52.867 25.5503C49.0679 21.7484 44.0147 19.6546 38.6385 19.6546C33.2622 19.6546 28.2079 21.7482 24.4066 25.5499C16.5625 33.3938 16.5625 46.1607 24.4069 54.0102C28.3313 57.932 33.485 59.893 38.6385 59.893C43.2425 59.893 47.8455 58.3263 51.5712 55.196C51.615 55.1635 51.6566 55.1288 51.696 55.0916C52.097 54.7493 52.4877 54.389 52.8668 54.01C56.6684 50.2087 58.762 45.1543 58.762 39.7783C58.762 35.82 57.6257 32.0377 55.5101 28.8015L58.203 27.1265C59.2504 27.608 61.1783 28.4175 64.8453 29.9575C65.5007 30.2328 65.9876 30.4372 66.1748 30.5178C66.2177 30.536 66.2593 30.5572 66.3002 30.5776C66.501 30.6764 66.9038 30.8746 67.3918 30.8751C68.7848 35.3688 69.1047 40.1717 68.3053 44.8582V44.858ZM51.3576 51.6084C49.8877 48.2196 47.1396 45.5967 43.7767 44.2584C45.7333 42.7273 46.9945 40.3465 46.9945 37.6752C46.9945 36.548 46.769 35.4728 46.3627 34.4907L53.1714 30.2559C55.0175 33.0598 56.009 36.3423 56.009 39.7781C56.009 44.2076 54.3614 48.3839 51.3576 51.6084ZM33.0362 37.675C33.0362 34.5842 35.5485 32.0697 38.6366 32.0697C40.1433 32.0697 41.5119 32.6683 42.5201 33.6387L37.9096 36.5063C37.2642 36.9078 37.0664 37.7563 37.4678 38.4019C37.7286 38.8211 38.178 39.0514 38.638 39.0514C38.886 39.0514 39.1373 38.9842 39.3636 38.8436L43.9774 35.974C44.1488 36.5107 44.242 37.0821 44.242 37.6749C44.242 40.7304 41.7838 43.2213 38.7414 43.2775C38.7064 43.2771 38.6718 43.2752 38.6368 43.2752C38.6017 43.2752 38.5672 43.2771 38.5321 43.2775C35.4923 43.2213 33.0364 40.7304 33.0364 37.6749L33.0362 37.675ZM38.6366 46.033C38.6717 46.033 38.7062 46.0307 38.7413 46.0304C43.5099 46.0747 47.6748 49.1303 49.1729 53.5917C46.075 55.9581 42.3575 57.1419 38.638 57.1416C34.9207 57.1412 31.2027 55.9581 28.1041 53.5939C29.6013 49.1314 33.765 46.0746 38.5318 46.0304C38.5668 46.0307 38.6014 46.033 38.6364 46.033H38.6366ZM44.9051 32.1554C43.3724 30.4167 41.131 29.3169 38.6366 29.3169C34.0307 29.3169 30.2835 33.0662 30.2835 37.675C30.2835 40.3463 31.5438 42.7269 33.4991 44.258C30.1364 45.5967 27.3882 48.2211 25.9189 51.6115C19.5865 44.8063 19.7302 34.1188 26.3527 27.4961C29.6345 24.2145 33.9975 22.4072 38.6381 22.4072C43.2788 22.4072 47.6404 24.2145 50.9203 27.4964C51.1087 27.6846 51.2916 27.8768 51.47 28.0718L44.9047 32.1553L44.9051 32.1554ZM67.2708 27.9924C67.2667 27.9906 67.2624 27.9888 67.2584 27.9871C67.0728 27.9072 66.5778 27.6992 65.9111 27.4192C64.3812 26.7769 60.7208 25.2395 59.2724 24.5874C59.1714 22.9266 59.0218 18.6517 58.9672 17.0858C58.9471 16.5126 58.9325 16.0922 58.9252 15.9193C58.9252 15.9134 58.9247 15.9076 58.9246 15.9016L73.6345 5.7403L73.9531 13.4011C73.9543 13.4276 73.9547 13.4372 73.9573 13.4637L73.9583 13.4846C73.9607 13.5347 73.9636 13.5843 73.9686 13.6318C74.0196 14.1424 74.3505 14.5821 74.8269 14.7728C74.8586 14.7854 74.8869 14.7983 74.9155 14.811C74.9213 14.8138 74.9273 14.8163 74.9333 14.8189L81.9847 17.8331L67.271 27.9923L67.2708 27.9924ZM20.3493 77.4747C20.3493 78.2349 19.7331 78.8511 18.9729 78.8511H5.75502C2.80118 78.8511 0.398193 76.4481 0.398193 73.4943V60.2764C0.398193 59.5162 1.01437 58.9 1.77457 58.9C2.53477 58.9 3.15094 59.5162 3.15094 60.2764V73.4943C3.15094 74.9301 4.31918 76.0984 5.75502 76.0984H18.9729C19.7331 76.0984 20.3493 76.7145 20.3493 77.4747ZM79.0379 60.2764V73.4943C79.0379 76.4481 76.6327 78.8511 73.6764 78.8511H60.4633C59.7031 78.8511 59.087 78.2349 59.087 77.4747C59.087 76.7145 59.7031 76.0984 60.4633 76.0984H73.6764C75.1148 76.0984 76.2853 74.9301 76.2853 73.4943V60.2764C76.2853 59.5162 76.9015 58.9 77.6617 58.9C78.4219 58.9 79.038 59.5162 79.038 60.2764H79.0379ZM0.398193 18.786V5.57289C0.398193 2.61664 2.80118 0.211426 5.75502 0.211426H18.9729C19.7331 0.211426 20.3493 0.827598 20.3493 1.5878C20.3493 2.348 19.7331 2.96418 18.9729 2.96418H5.75502C4.31918 2.96418 3.15094 4.13464 3.15094 5.57307V18.7861C3.15094 19.5463 2.53477 20.1625 1.77457 20.1625C1.01437 20.1625 0.398193 19.5462 0.398193 18.786Z" fill="black"/>
</svg>
