<svg width="169" height="60" viewBox="0 0 169 60" fill="none" xmlns="http://www.w3.org/2000/svg">
<g clip-path="url(#clip0_552_595)">
<path d="M25.4361 0.518127V30.2654H19.0644V18.4499H7.67402V30.2654H1.29594V0.518127H7.66767V12.1567H19.058V0.518127H25.4297H25.4361Z" fill="white"/>
<path d="M51.1326 23.9722V30.2654H31.6808V0.518127H50.923V6.8113H38.0525V12.1567H49.5635V18.4499H38.0525V23.9659H51.1263L51.1326 23.9722Z" fill="white"/>
<path d="M80.8567 0.518127V30.2654H74.4024L62.6437 12.0683V30.2654H56.2719V0.518127H62.6881L74.4914 18.7089V0.518127H80.8631H80.8567Z" fill="white"/>
<path d="M107.544 6.8113H99.6479V30.2654H93.2762V6.8113H85.3799V0.518127H107.544V6.8113Z" fill="white"/>
<path d="M108.815 15.3917C108.815 6.64069 115.269 0 123.826 0C132.383 0 138.831 6.64069 138.831 15.3917C138.831 24.1428 132.332 30.7835 123.826 30.7835C115.32 30.7835 108.815 24.1428 108.815 15.3917ZM132.294 15.3917C132.294 10.2612 128.635 6.42586 123.826 6.42586C119.017 6.42586 115.358 10.2612 115.358 15.3917C115.358 20.5223 119.017 24.3576 123.826 24.3576C128.635 24.3576 132.294 20.5223 132.294 15.3917Z" fill="white"/>
<path d="M168.231 0.518127V30.2654H161.777L150.018 12.0683V30.2654H143.647V0.518127H150.063L161.866 18.7089V0.518127H168.238H168.231Z" fill="white"/>
<path d="M1.15619 52.1841C1.15619 47.7865 4.33888 44.4503 8.55705 44.4503C11.1616 44.4503 13.3914 45.7709 14.6937 47.8054L14.2363 48.1087C13.0357 46.2005 10.9711 44.9874 8.55069 44.9874C4.6438 44.9874 1.70887 48.0834 1.70887 52.1778C1.70887 56.2721 4.6438 59.3682 8.55069 59.3682C10.9711 59.3682 13.0357 58.155 14.2363 56.2469L14.6937 56.5501C13.3914 58.5847 11.1616 59.9052 8.55705 59.9052C4.33888 59.9052 1.15619 56.5691 1.15619 52.1715V52.1841Z" fill="white" stroke="white" stroke-width="0.25" stroke-miterlimit="10"/>
<path d="M21.0527 52.1841C21.0527 47.7865 24.2354 44.4503 28.4536 44.4503C32.6718 44.4503 35.829 47.7865 35.829 52.1841C35.829 56.5817 32.6464 59.9179 28.4536 59.9179C24.2608 59.9179 21.0527 56.5817 21.0527 52.1841ZM35.27 52.1841C35.27 48.0897 32.3351 44.9937 28.4472 44.9937C24.5594 44.9937 21.6054 48.0897 21.6054 52.1841C21.6054 56.2785 24.5403 59.3745 28.4472 59.3745C32.3541 59.3745 35.27 56.2785 35.27 52.1841Z" fill="white" stroke="white" stroke-width="0.25" stroke-miterlimit="10"/>
<path d="M54.5694 44.7157V59.6652H53.9278L43.6555 45.4739V59.6652H43.1156V44.7157H43.7762L54.0294 58.8627V44.7157H54.5694Z" fill="white" stroke="white" stroke-width="0.25" stroke-miterlimit="10"/>
<path d="M61.7416 57.5611L62.0719 57.1694C63.0439 58.4015 64.7782 59.3998 66.8682 59.3998C69.3457 59.3998 71.2706 57.9908 71.2706 55.9562C71.2706 53.2709 67.9418 52.5759 66.7221 52.3168C64.7781 51.9251 62.0719 50.9268 62.0719 48.3109C62.0719 45.992 64.0984 44.4567 66.7411 44.4567C68.558 44.4567 70.1525 45.1959 71.0609 46.3838L70.7497 46.7503C70.0699 45.7962 68.558 44.9748 66.7411 44.9748C64.4033 44.9748 62.6309 46.3396 62.6309 48.292C62.6309 50.674 65.3181 51.4575 66.8682 51.7608C68.3992 52.0641 71.8296 52.9992 71.8296 55.9436C71.8296 58.2814 69.657 59.9305 66.8682 59.9305C64.8226 59.9305 62.8978 59.0207 61.7416 57.5674V57.5611Z" fill="white" stroke="white" stroke-width="0.25" stroke-miterlimit="10"/>
<path d="M78.4173 54.0038V44.7094H78.9573V54.0038C78.9573 57.0556 81.149 59.3745 84.0648 59.3745C86.9807 59.3745 89.1914 57.0556 89.1914 54.0038V44.7094H89.706V54.0038C89.706 57.3842 87.2857 59.9179 84.0648 59.9179C80.844 59.9179 78.4237 57.3842 78.4237 54.0038H78.4173Z" fill="white" stroke="white" stroke-width="0.25" stroke-miterlimit="10"/>
<path d="M105.937 59.1407V59.6588H97.4436V44.7094H97.9835V59.1344H105.943L105.937 59.1407Z" fill="white" stroke="white" stroke-width="0.25" stroke-miterlimit="10"/>
<path d="M119.411 45.2338H114.246V59.6652H113.706V45.2338H108.542V44.7157H119.411V45.2338Z" fill="white" stroke="white" stroke-width="0.25" stroke-miterlimit="10"/>
<path d="M126.272 44.7157H126.812V59.6652H126.272V44.7157Z" fill="white" stroke="white" stroke-width="0.25" stroke-miterlimit="10"/>
<path d="M146.397 44.7157V59.6652H145.756L135.483 45.4739V59.6652H134.943V44.7157H135.604L145.857 58.8627V44.7157H146.397Z" fill="white" stroke="white" stroke-width="0.25" stroke-miterlimit="10"/>
<path d="M168.263 52.3168V52.4874C168.263 56.7523 165.182 59.9179 161.072 59.9179C156.962 59.9179 153.696 56.5817 153.696 52.1841C153.696 47.7865 156.879 44.4503 161.097 44.4503C163.702 44.4503 165.932 45.7519 167.234 47.7865L166.821 48.1087C165.62 46.2005 163.556 44.9874 161.097 44.9874C157.209 44.9874 154.255 48.0834 154.255 52.1778C154.255 56.2721 157.209 59.3682 161.097 59.3682C164.775 59.3682 167.609 56.6197 167.71 52.8286H161.86V52.3105H168.263V52.3168Z" fill="white" stroke="white" stroke-width="0.25" stroke-miterlimit="10"/>
<path d="M0 37.759H169" stroke="white" stroke-width="0.75" stroke-miterlimit="10"/>
</g>
<defs>
<clipPath id="clip0_552_595">
<rect width="169" height="60" fill="white"/>
</clipPath>
</defs>
</svg>
