<svg width="36" height="37" viewBox="0 0 36 37" fill="none" xmlns="http://www.w3.org/2000/svg">
<path d="M16.3124 25.25H3.37494C2.75619 25.25 2.24994 24.7437 2.24994 24.125V5C2.24994 4.38125 2.75619 3.875 3.37494 3.875H30.9374C31.5562 3.875 32.0624 4.38125 32.0624 5V17.8025C32.0624 18.1119 32.3156 18.365 32.6249 18.365C32.9343 18.365 33.1874 18.1119 33.1874 17.8025V5C33.1874 3.75688 32.1806 2.75 30.9374 2.75H3.37494C2.13181 2.75 1.12494 3.75688 1.12494 5V24.125C1.12494 25.3681 2.13181 26.375 3.37494 26.375H16.3124C16.6218 26.375 16.8749 26.1219 16.8749 25.8125C16.8749 25.5031 16.6218 25.25 16.3124 25.25Z" fill="white"/>
<path d="M34.8749 25.8125C34.8749 21.1606 31.0893 17.375 26.4374 17.375C21.7856 17.375 17.9999 21.1606 17.9999 25.8125C17.9999 30.4644 21.7856 34.25 26.4374 34.25C28.6874 34.25 30.8024 33.3725 32.4056 31.7806C33.9974 30.1831 34.8749 28.0625 34.8749 25.8125ZM31.9893 30.5712L30.3918 28.9737C30.9937 28.22 31.3649 27.3256 31.4662 26.375H33.7274C33.6093 27.9275 33.0074 29.3844 31.9893 30.5712ZM26.4374 21.875C28.6087 21.875 30.3749 23.6413 30.3749 25.8125C30.3749 26.8588 29.9643 27.8488 29.2218 28.5969C28.4737 29.3394 27.4837 29.75 26.4374 29.75C24.2662 29.75 22.4999 27.9838 22.4999 25.8125C22.4999 23.6413 24.2662 21.875 26.4374 21.875ZM33.7274 25.25H31.4662C31.2074 22.9044 29.3399 21.0425 26.9999 20.7838V18.5225C30.5831 18.7981 33.4518 21.6669 33.7274 25.25ZM26.4374 33.125C22.4043 33.125 19.1249 29.8456 19.1249 25.8125C19.1249 21.7794 22.1062 18.8094 25.8749 18.5225V20.7838C23.3493 21.065 21.3749 23.2137 21.3749 25.8125C21.3749 28.6025 23.6474 30.875 26.4374 30.875C27.5962 30.875 28.6987 30.4869 29.5987 29.7669L31.1962 31.3644C29.8687 32.5006 28.1981 33.125 26.4374 33.125Z" fill="white"/>
<path d="M18.5624 11.75C18.5624 11.4519 18.4781 11.1706 18.3374 10.9288L20.1881 8.81375C20.3793 8.8925 20.5874 8.9375 20.8068 8.9375C21.0262 8.9375 21.2343 8.8925 21.4256 8.81375L23.2762 10.9288C23.1412 11.1706 23.0512 11.4519 23.0512 11.75C23.0512 12.6781 23.8106 13.4375 24.7387 13.4375C25.6668 13.4375 26.4262 12.6781 26.4262 11.75C26.4262 11.4519 26.3418 11.1706 26.2012 10.9288L28.0518 8.81375C28.2431 8.8925 28.4512 8.9375 28.6706 8.9375C29.5987 8.9375 30.3581 8.17812 30.3581 7.25C30.3581 6.32188 29.5987 5.5625 28.6706 5.5625C27.7424 5.5625 26.9831 6.32188 26.9831 7.25C26.9831 7.54813 27.0674 7.82938 27.2081 8.07125L25.3574 10.1862C25.1662 10.1075 24.9581 10.0625 24.7387 10.0625C24.5193 10.0625 24.3112 10.1075 24.1199 10.1862L22.2693 8.07125C22.4043 7.82938 22.4943 7.54813 22.4943 7.25C22.4943 6.32188 21.7349 5.5625 20.8068 5.5625C19.8787 5.5625 19.1193 6.32188 19.1193 7.25C19.1193 7.54813 19.2037 7.82938 19.3443 8.07125L17.4937 10.1862C17.3024 10.1075 17.0943 10.0625 16.8749 10.0625C15.9468 10.0625 15.1874 10.8219 15.1874 11.75C15.1874 12.6781 15.9468 13.4375 16.8749 13.4375C17.8031 13.4375 18.5624 12.6781 18.5624 11.75ZM28.6874 6.6875C28.9968 6.6875 29.2499 6.94062 29.2499 7.25C29.2499 7.55938 28.9968 7.8125 28.6874 7.8125C28.3781 7.8125 28.1249 7.55938 28.1249 7.25C28.1249 6.94062 28.3781 6.6875 28.6874 6.6875ZM25.3124 11.75C25.3124 12.0594 25.0593 12.3125 24.7499 12.3125C24.4406 12.3125 24.1874 12.0594 24.1874 11.75C24.1874 11.4406 24.4406 11.1875 24.7499 11.1875C25.0593 11.1875 25.3124 11.4406 25.3124 11.75ZM20.8124 6.6875C21.1218 6.6875 21.3749 6.94062 21.3749 7.25C21.3749 7.55938 21.1218 7.8125 20.8124 7.8125C20.5031 7.8125 20.2499 7.55938 20.2499 7.25C20.2499 6.94062 20.5031 6.6875 20.8124 6.6875ZM16.8749 12.3125C16.5656 12.3125 16.3124 12.0594 16.3124 11.75C16.3124 11.4406 16.5656 11.1875 16.8749 11.1875C17.1843 11.1875 17.4374 11.4406 17.4374 11.75C17.4374 12.0594 17.1843 12.3125 16.8749 12.3125Z" fill="white"/>
<path d="M3.93744 23C3.93744 23.3094 4.19056 23.5625 4.49994 23.5625H6.74994C7.05931 23.5625 7.31244 23.3094 7.31244 23V16.8125C7.31244 16.5031 7.05931 16.25 6.74994 16.25H4.49994C4.19056 16.25 3.93744 16.5031 3.93744 16.8125V23ZM5.06244 17.375H6.18744V22.4375H5.06244V17.375Z" fill="white"/>
<path d="M8.99994 14C8.69056 14 8.43744 14.2531 8.43744 14.5625V23C8.43744 23.3094 8.69056 23.5625 8.99994 23.5625H11.2499C11.5593 23.5625 11.8124 23.3094 11.8124 23V14.5625C11.8124 14.2531 11.5593 14 11.2499 14H8.99994ZM10.6874 22.4375H9.56244V15.125H10.6874V22.4375Z" fill="white"/>
<path d="M13.4999 23.5625H15.7499C16.0593 23.5625 16.3124 23.3094 16.3124 23V18.5C16.3124 18.1906 16.0593 17.9375 15.7499 17.9375H13.4999C13.1906 17.9375 12.9374 18.1906 12.9374 18.5V23C12.9374 23.3094 13.1906 23.5625 13.4999 23.5625ZM14.0624 19.0625H15.1874V22.4375H14.0624V19.0625Z" fill="white"/>
<path d="M4.49994 6.6875H5.62494C5.93431 6.6875 6.18744 6.43437 6.18744 6.125C6.18744 5.81562 5.93431 5.5625 5.62494 5.5625H4.49994C4.19056 5.5625 3.93744 5.81562 3.93744 6.125C3.93744 6.43437 4.19056 6.6875 4.49994 6.6875Z" fill="white"/>
<path d="M7.87494 6.6875H12.3749C12.6843 6.6875 12.9374 6.43437 12.9374 6.125C12.9374 5.81562 12.6843 5.5625 12.3749 5.5625H7.87494C7.56556 5.5625 7.31244 5.81562 7.31244 6.125C7.31244 6.43437 7.56556 6.6875 7.87494 6.6875Z" fill="white"/>
<path d="M4.49994 9.5H5.62494C5.93431 9.5 6.18744 9.24687 6.18744 8.9375C6.18744 8.62812 5.93431 8.375 5.62494 8.375H4.49994C4.19056 8.375 3.93744 8.62812 3.93744 8.9375C3.93744 9.24687 4.19056 9.5 4.49994 9.5Z" fill="white"/>
<path d="M7.87494 9.5H12.3749C12.6843 9.5 12.9374 9.24687 12.9374 8.9375C12.9374 8.62812 12.6843 8.375 12.3749 8.375H7.87494C7.56556 8.375 7.31244 8.62812 7.31244 8.9375C7.31244 9.24687 7.56556 9.5 7.87494 9.5Z" fill="white"/>
<path d="M4.49994 12.3125H5.62494C5.93431 12.3125 6.18744 12.0594 6.18744 11.75C6.18744 11.4406 5.93431 11.1875 5.62494 11.1875H4.49994C4.19056 11.1875 3.93744 11.4406 3.93744 11.75C3.93744 12.0594 4.19056 12.3125 4.49994 12.3125Z" fill="white"/>
<path d="M12.9374 11.75C12.9374 11.4406 12.6843 11.1875 12.3749 11.1875H7.87494C7.56556 11.1875 7.31244 11.4406 7.31244 11.75C7.31244 12.0594 7.56556 12.3125 7.87494 12.3125H12.3749C12.6843 12.3125 12.9374 12.0594 12.9374 11.75Z" fill="white"/>
</svg>
