<svg width="88" height="88" viewBox="0 0 88 88" fill="none" xmlns="http://www.w3.org/2000/svg">
<path d="M70.4 35.2C80.1052 35.2 88 27.3052 88 17.6C88 7.89479 80.1052 0 70.4 0C63.3524 0 57.2759 4.17298 54.4679 10.17L49.7549 8.43047C49.8108 8.06953 49.8667 7.70859 49.8667 7.33333C49.8667 3.28997 46.5767 0 42.5333 0C38.49 0 35.2 3.28997 35.2 7.33333C35.2 11.3767 38.49 14.6667 42.5333 14.6667C45.1602 14.6667 47.4511 13.2659 48.7459 11.1848L53.451 12.9214C53.0378 14.4146 52.8 15.9779 52.8 17.6C52.8 19.5214 53.1194 21.3662 53.6916 23.0986L37.5611 29.9349C34.6077 24.3511 28.7454 20.5333 22 20.5333C19.8143 20.5333 17.7289 20.953 15.796 21.6835L11.7391 13.1577C13.5065 11.8171 14.6667 9.71667 14.6667 7.33333C14.6667 3.28997 11.3767 0 7.33333 0C3.28997 0 0 3.28997 0 7.33333C0 11.3767 3.28997 14.6667 7.33333 14.6667C7.94349 14.6667 8.52858 14.57 9.09648 14.4275L13.1484 22.9446C7.92559 26.0011 4.4 31.6565 4.4 38.1333C4.4 44.217 7.50378 49.5867 12.2089 52.7484L9.52617 57.571C8.82793 57.3511 8.10176 57.2 7.33333 57.2C3.28997 57.2 0 60.49 0 64.5333C0 68.5767 3.28997 71.8667 7.33333 71.8667C11.3767 71.8667 14.6667 68.5767 14.6667 64.5333C14.6667 62.3126 13.6533 60.3432 12.09 58.9982L14.7784 54.1657C16.9841 55.164 19.4247 55.7333 22 55.7333C26.0247 55.7333 29.7265 54.3605 32.6949 52.0781L38.4678 58.4289C35.5402 61.5735 33.7333 65.7744 33.7333 70.4C33.7333 71.2973 33.8229 72.1717 33.9518 73.0326L27.1598 74.6446C25.9911 72.1452 23.4695 70.4 20.5333 70.4C16.49 70.4 13.2 73.69 13.2 77.7333C13.2 81.7767 16.49 85.0667 20.5333 85.0667C24.5767 85.0667 27.8667 81.7767 27.8667 77.7333C27.8667 77.6524 27.8445 77.5765 27.843 77.4956L34.6221 75.8885C36.9338 82.9118 43.5452 88 51.3333 88C61.0385 88 68.9333 80.1052 68.9333 70.4C68.9333 67.3908 68.1721 64.557 66.8343 62.0784L75.4495 56.4767C76.7816 57.8259 78.6264 58.6667 80.6667 58.6667C84.71 58.6667 88 55.3767 88 51.3333C88 47.29 84.71 44 80.6667 44C76.6233 44 73.3333 47.29 73.3333 51.3333C73.3333 52.2808 73.5281 53.181 73.8568 54.0132L65.2215 59.627C63.4935 57.4055 61.2498 55.6116 58.6667 54.4206L65.8253 34.5755C67.2862 34.9694 68.8159 35.2 70.4 35.2ZM42.5333 11.7333C40.1077 11.7333 38.1333 9.75892 38.1333 7.33333C38.1333 4.90775 40.1077 2.93333 42.5333 2.93333C44.9589 2.93333 46.9333 4.90775 46.9333 7.33333C46.9333 9.75892 44.9589 11.7333 42.5333 11.7333ZM2.93333 7.33333C2.93333 4.90775 4.90775 2.93333 7.33333 2.93333C9.75892 2.93333 11.7333 4.90775 11.7333 7.33333C11.7333 9.75892 9.75892 11.7333 7.33333 11.7333C4.90775 11.7333 2.93333 9.75892 2.93333 7.33333ZM7.33333 68.9333C4.90775 68.9333 2.93333 66.9589 2.93333 64.5333C2.93333 62.1077 4.90775 60.1333 7.33333 60.1333C9.75892 60.1333 11.7333 62.1077 11.7333 64.5333C11.7333 66.9589 9.75892 68.9333 7.33333 68.9333ZM20.5333 82.1333C18.1077 82.1333 16.1333 80.1589 16.1333 77.7333C16.1333 75.3077 18.1077 73.3333 20.5333 73.3333C22.9589 73.3333 24.9333 75.3077 24.9333 77.7333C24.9333 80.1589 22.9589 82.1333 20.5333 82.1333ZM80.6667 46.9333C83.0923 46.9333 85.0667 48.9077 85.0667 51.3333C85.0667 53.7589 83.0923 55.7333 80.6667 55.7333C78.2411 55.7333 76.2667 53.7589 76.2667 51.3333C76.2667 48.9077 78.2411 46.9333 80.6667 46.9333ZM61.7626 29.4271C62.4171 26.0348 65.4077 23.4667 68.9333 23.4667H71.8667C75.3923 23.4667 78.3829 26.0348 79.0374 29.4271C76.6111 31.2032 73.6312 32.2667 70.4 32.2667C67.1688 32.2667 64.1889 31.2032 61.7626 29.4271ZM70.4 20.5333C67.9744 20.5333 66 18.5589 66 16.1333C66 13.7077 67.9744 11.7333 70.4 11.7333C72.8256 11.7333 74.8 13.7077 74.8 16.1333C74.8 18.5589 72.8256 20.5333 70.4 20.5333ZM70.4 2.93333C78.4874 2.93333 85.0667 9.51257 85.0667 17.6C85.0667 21.2667 83.7038 24.6168 81.4702 27.1906C80.4425 24.4843 78.2998 22.3244 75.63 21.2581C76.9284 19.9346 77.7333 18.1278 77.7333 16.1333C77.7333 12.09 74.4434 8.8 70.4 8.8C66.3566 8.8 63.0667 12.09 63.0667 16.1333C63.0667 18.1278 63.8716 19.9346 65.17 21.2581C62.5002 22.3244 60.3575 24.4843 59.3298 27.1906C57.0962 24.6168 55.7333 21.2667 55.7333 17.6C55.7333 9.51257 62.3126 2.93333 70.4 2.93333ZM7.33333 38.1333C7.33333 30.0459 13.9126 23.4667 22 23.4667C30.0874 23.4667 36.6667 30.0459 36.6667 38.1333C36.6667 41.8115 35.2952 45.1702 33.0501 47.7476C32.026 45.0312 29.879 42.8606 27.2021 41.7914C28.499 40.468 29.304 38.6611 29.304 36.6667C29.304 32.6233 26.014 29.3333 21.9706 29.3333C17.9273 29.3333 14.6373 32.6233 14.6373 36.6667C14.6373 38.6611 15.4423 40.468 16.7406 41.7914C14.0787 42.8527 11.9389 45.0048 10.9076 47.7003C8.68685 45.1294 7.33333 41.79 7.33333 38.1333ZM17.5706 36.6667C17.5706 34.2411 19.5451 32.2667 21.9706 32.2667C24.3962 32.2667 26.3706 34.2411 26.3706 36.6667C26.3706 39.0923 24.3962 41.0667 21.9706 41.0667C19.5451 41.0667 17.5706 39.0923 17.5706 36.6667ZM13.3382 49.9411C13.9992 46.5581 16.9855 44 20.504 44H23.4373C26.9693 44 29.9657 46.5767 30.6109 49.9798C28.1896 51.7451 25.2191 52.8 22 52.8C18.7573 52.8 15.7681 51.7294 13.3382 49.9411ZM42.6716 82.2078C43.3326 78.8247 46.3189 76.2667 49.8373 76.2667H52.7706C56.3027 76.2667 59.299 78.8434 59.9443 82.2465C57.523 84.0118 54.5524 85.0667 51.3333 85.0667C48.0906 85.0667 45.1014 83.996 42.6716 82.2078ZM51.304 73.3333C48.8784 73.3333 46.904 71.3589 46.904 68.9333C46.904 66.5078 48.8784 64.5333 51.304 64.5333C53.7296 64.5333 55.704 66.5078 55.704 68.9333C55.704 71.3589 53.7296 73.3333 51.304 73.3333ZM66 70.4C66 74.0781 64.6286 77.4369 62.3835 80.0143C61.3594 77.2979 59.2124 75.1273 56.5354 74.0581C57.8324 72.7346 58.6373 70.9278 58.6373 68.9333C58.6373 64.89 55.3473 61.6 51.304 61.6C47.2606 61.6 43.9706 64.89 43.9706 68.9333C43.9706 70.9278 44.7756 72.7346 46.074 74.0581C43.412 75.1194 41.2722 77.2714 40.241 79.967C38.0202 77.396 36.6667 74.0566 36.6667 70.4C36.6667 62.3126 43.2459 55.7333 51.3333 55.7333C59.4208 55.7333 66 62.3126 66 70.4ZM55.9081 53.4245C54.4471 53.0306 52.9174 52.8 51.3333 52.8C47.3086 52.8 43.6068 54.1729 40.6384 56.4552L34.8656 50.1044C37.7932 46.9598 39.6 42.7589 39.6 38.1333C39.6 36.2119 39.2806 34.3671 38.7084 32.6348L54.8389 25.7984C56.6457 29.2145 59.5454 31.9559 63.0681 33.5794L55.9081 53.4245Z" fill="#191E29"/>
</svg>
