<svg width="88" height="88" viewBox="0 0 88 88" fill="none" xmlns="http://www.w3.org/2000/svg">
<path d="M6.24766 29.8839C4.55984 34.3939 3.70391 39.1428 3.70391 44C3.70391 48.8555 4.55984 53.6061 6.24938 58.1161C6.41609 58.5613 6.19094 59.0563 5.74578 59.223C5.64609 59.2608 5.54469 59.278 5.445 59.278C5.09609 59.278 4.76953 59.0648 4.64062 58.7194C2.87719 54.0152 1.98344 49.0617 1.98344 44C1.98344 38.9366 2.87547 33.9848 4.63719 29.2823C4.80391 28.8372 5.29891 28.612 5.74406 28.7788C6.1875 28.9455 6.41266 29.4405 6.24766 29.8839ZM29.5814 6.30266C29.6811 6.30266 29.7825 6.28547 29.8822 6.24766C34.3939 4.55984 39.1428 3.70391 43.9983 3.70391C48.8572 3.70391 53.6078 4.55984 58.1161 6.24594C58.5613 6.41266 59.0563 6.1875 59.223 5.74234C59.3897 5.29719 59.1645 4.80219 58.7194 4.63719C54.0186 2.87719 49.0652 1.98516 44 1.98516C38.9366 1.98516 33.9848 2.87719 29.2806 4.63891C28.8355 4.80562 28.6103 5.30063 28.777 5.74578C28.9059 6.08953 29.2342 6.30266 29.5814 6.30266ZM82.2559 59.223C82.3556 59.2608 82.457 59.278 82.5567 59.278C82.9056 59.278 83.2322 59.0648 83.3611 58.7194C85.1228 54.0152 86.0148 49.0634 86.0148 44C86.0148 38.9348 85.1228 33.9831 83.3628 29.2806C83.1961 28.8355 82.7011 28.6103 82.2559 28.777C81.8108 28.9437 81.5856 29.4387 81.7523 29.8822C83.4402 34.3905 84.2944 39.1411 84.2944 43.9983C84.2944 48.8538 83.4384 53.6044 81.7506 58.1144C81.5856 58.5612 81.8108 59.0563 82.2559 59.223ZM58.0938 81.7609C53.5889 83.4436 48.8469 84.2978 44 84.2978C39.1514 84.2978 34.4094 83.4453 29.9062 81.7609C29.4611 81.5942 28.9661 81.8211 28.8011 82.2645C28.6344 82.7097 28.8612 83.2047 29.3047 83.3697C34.002 85.1245 38.9469 86.0148 44 86.0148C49.0548 86.0148 53.9997 85.1245 58.6953 83.3697C59.1405 83.203 59.3656 82.708 59.1989 82.2645C59.0339 81.8211 58.5389 81.5942 58.0938 81.7609ZM60.0944 14.8981C60.0944 7.72578 65.9295 1.89062 73.1019 1.89062C80.2742 1.89062 86.1094 7.72578 86.1094 14.8981C86.1094 22.0705 80.2742 27.9056 73.1019 27.9056C65.9295 27.9056 60.0944 22.0705 60.0944 14.8981ZM73.1019 26.1869C75.9584 26.1869 78.5692 25.1178 80.5595 23.3612C79.4527 20.2125 76.4603 18.0194 73.1019 17.9644C69.7434 18.0211 66.7511 20.2125 65.6442 23.3612C67.6345 25.1178 70.2453 26.1869 73.1019 26.1869ZM61.8131 14.8981C61.8131 17.5897 62.7619 20.063 64.3397 22.0052C65.8814 18.6089 69.2948 16.3041 73.0898 16.2473H73.1156C76.9106 16.3041 80.3241 18.6089 81.8658 22.0052C83.4436 20.063 84.3923 17.5897 84.3923 14.8981C84.3906 8.67281 79.3272 3.60938 73.1019 3.60938C66.8766 3.60938 61.8131 8.67281 61.8131 14.8981ZM68.145 11.1461C68.145 8.41328 70.3691 6.18922 73.1019 6.18922C75.8347 6.18922 78.0588 8.41328 78.0588 11.1461C78.0588 13.8789 75.8347 16.103 73.1019 16.103C70.3691 16.103 68.145 13.8789 68.145 11.1461ZM69.8638 11.1461C69.8638 12.9319 71.3161 14.3842 73.1019 14.3842C74.8877 14.3842 76.34 12.9319 76.34 11.1461C76.34 9.36031 74.8877 7.90797 73.1019 7.90797C71.3161 7.90797 69.8638 9.36031 69.8638 11.1461ZM1.89062 14.8981C1.89062 7.72578 7.72578 1.89062 14.8981 1.89062C22.0705 1.89062 27.9056 7.72578 27.9056 14.8981C27.9056 22.0705 22.0705 27.9056 14.8981 27.9056C7.72578 27.9056 1.89062 22.0705 1.89062 14.8981ZM14.8981 26.1869C17.7547 26.1869 20.3655 25.1178 22.3558 23.3612C21.2489 20.2125 18.2566 18.0194 14.8981 17.9644C11.5397 18.0211 8.54734 20.2125 7.44047 23.3612C9.43078 25.1178 12.0416 26.1869 14.8981 26.1869ZM3.60938 14.8981C3.60938 17.5897 4.55813 20.063 6.13594 22.0052C7.67766 18.6089 11.0911 16.3041 14.8861 16.2473H14.9119C18.7069 16.3041 22.1203 18.6089 23.662 22.0052C25.2398 20.063 26.1886 17.5897 26.1886 14.8981C26.1869 8.67281 21.1234 3.60938 14.8981 3.60938C8.67281 3.60938 3.60938 8.67281 3.60938 14.8981ZM9.94125 11.1461C9.94125 8.41328 12.1653 6.18922 14.8981 6.18922C17.6309 6.18922 19.855 8.41328 19.855 11.1461C19.855 13.8789 17.6309 16.103 14.8981 16.103C12.1653 16.103 9.94125 13.8789 9.94125 11.1461ZM11.66 11.1461C11.66 12.9319 13.1123 14.3842 14.8981 14.3842C16.6839 14.3842 18.1362 12.9319 18.1362 11.1461C18.1362 9.36031 16.6839 7.90797 14.8981 7.90797C13.1123 7.90797 11.66 9.36031 11.66 11.1461ZM86.1094 73.1019C86.1094 80.2742 80.2742 86.1094 73.1019 86.1094C65.9295 86.1094 60.0944 80.2742 60.0944 73.1019C60.0944 65.9295 65.9295 60.0944 73.1019 60.0944C80.2742 60.0944 86.1094 65.9295 86.1094 73.1019ZM73.1019 84.3906C75.9584 84.3906 78.5692 83.3216 80.5595 81.565C79.4527 78.4163 76.4603 76.2231 73.1019 76.1681C69.7434 76.2248 66.7511 78.4163 65.6442 81.565C67.6345 83.3216 70.2453 84.3906 73.1019 84.3906ZM84.3906 73.1019C84.3906 66.8766 79.3272 61.8131 73.1019 61.8131C66.8766 61.8131 61.8131 66.8766 61.8131 73.1019C61.8131 75.7934 62.7619 78.2667 64.3397 80.2089C65.8814 76.8127 69.2948 74.5078 73.0898 74.4511H73.1156C76.9106 74.5078 80.3241 76.8127 81.8658 80.2089C83.4419 78.2667 84.3906 75.7934 84.3906 73.1019ZM78.0588 69.3498C78.0588 72.0827 75.8347 74.3067 73.1019 74.3067C70.3691 74.3067 68.145 72.0827 68.145 69.3498C68.145 66.617 70.3691 64.393 73.1019 64.393C75.8347 64.393 78.0588 66.617 78.0588 69.3498ZM76.34 69.3498C76.34 67.5641 74.8877 66.1117 73.1019 66.1117C71.3161 66.1117 69.8638 67.5641 69.8638 69.3498C69.8638 71.1356 71.3161 72.588 73.1019 72.588C74.8877 72.588 76.34 71.1356 76.34 69.3498ZM27.9056 73.1019C27.9056 80.2742 22.0705 86.1094 14.8981 86.1094C7.72578 86.1094 1.89062 80.2742 1.89062 73.1019C1.89062 65.9295 7.72578 60.0944 14.8981 60.0944C22.0705 60.0944 27.9056 65.9295 27.9056 73.1019ZM14.8981 84.3906C17.7547 84.3906 20.3655 83.3216 22.3558 81.565C21.2489 78.4163 18.2566 76.2231 14.8981 76.1681C11.5397 76.2248 8.54734 78.4163 7.44047 81.565C9.43078 83.3216 12.0416 84.3906 14.8981 84.3906ZM26.1869 73.1019C26.1869 66.8766 21.1234 61.8131 14.8981 61.8131C8.67281 61.8131 3.60938 66.8766 3.60938 73.1019C3.60938 75.7934 4.55813 78.2667 6.13594 80.2089C7.67766 76.8127 11.0911 74.5078 14.8861 74.4511H14.9119C18.7069 74.5078 22.1203 76.8127 23.662 80.2089C25.2381 78.2667 26.1869 75.7934 26.1869 73.1019ZM19.855 69.3498C19.855 72.0827 17.6309 74.3067 14.8981 74.3067C12.1653 74.3067 9.94125 72.0827 9.94125 69.3498C9.94125 66.617 12.1653 64.393 14.8981 64.393C17.6309 64.393 19.855 66.617 19.855 69.3498ZM18.1362 69.3498C18.1362 67.5641 16.6839 66.1117 14.8981 66.1117C13.1123 66.1117 11.66 67.5641 11.66 69.3498C11.66 71.1356 13.1123 72.588 14.8981 72.588C16.6839 72.588 18.1362 71.1356 18.1362 69.3498Z" fill="black"/>
</svg>
