<svg width="88" height="88" viewBox="0 0 88 88" fill="none" xmlns="http://www.w3.org/2000/svg">
<g clip-path="url(#clip0_552_1134)">
<path fill-rule="evenodd" clip-rule="evenodd" d="M0 68.0783C0 67.8048 0.108649 67.5425 0.302046 67.3491C0.495443 67.1557 0.757746 67.0471 1.03125 67.0471C1.30475 67.0471 1.56706 67.1557 1.76045 67.3491C1.95385 67.5425 2.0625 67.8048 2.0625 68.0783V86.1094H20.0939C20.3674 86.1094 20.6297 86.218 20.8231 86.4114C21.0165 86.6048 21.1252 86.8671 21.1252 87.1406C21.1252 87.4141 21.0165 87.6764 20.8231 87.8698C20.6297 88.0632 20.3674 88.1719 20.0939 88.1719H1.03125C0.757746 88.1719 0.495443 88.0632 0.302046 87.8698C0.108649 87.6764 0 87.4141 0 87.1406L0 68.0783ZM88 68.0783V87.1406C87.9997 87.414 87.8909 87.6761 87.6976 87.8695C87.5043 88.0628 87.2422 88.1716 86.9688 88.1719H67.9064C67.6329 88.1719 67.3706 88.0632 67.1772 87.8698C66.9838 87.6764 66.8752 87.4141 66.8752 87.1406C66.8752 86.8671 66.9838 86.6048 67.1772 86.4114C67.3706 86.218 67.6329 86.1094 67.9064 86.1094H85.9375V68.0783C85.9375 67.8048 86.0462 67.5425 86.2395 67.3491C86.4329 67.1557 86.6952 67.0471 86.9688 67.0471C87.2423 67.0471 87.5046 67.1557 87.698 67.3491C87.8913 67.5425 88 67.8048 88 68.0783ZM21.1252 1.20312C21.1252 1.47663 21.0165 1.73893 20.8231 1.93233C20.6297 2.12573 20.3674 2.23438 20.0939 2.23438H2.0625V20.2658C2.0625 20.5393 1.95385 20.8016 1.76045 20.995C1.56706 21.1884 1.30475 21.297 1.03125 21.297C0.757746 21.297 0.495443 21.1884 0.302046 20.995C0.108649 20.8016 0 20.5393 0 20.2658L0 1.20312C0 0.929621 0.108649 0.667318 0.302046 0.473921C0.495443 0.280524 0.757746 0.171875 1.03125 0.171875H20.0939C20.3674 0.171875 20.6297 0.280524 20.8231 0.473921C21.0165 0.667318 21.1252 0.929621 21.1252 1.20312ZM88 1.20312V20.2658C88 20.5393 87.8913 20.8016 87.698 20.995C87.5046 21.1884 87.2423 21.297 86.9688 21.297C86.6952 21.297 86.4329 21.1884 86.2395 20.995C86.0462 20.8016 85.9375 20.5393 85.9375 20.2658V2.23438H67.9064C67.771 2.23438 67.6369 2.2077 67.5118 2.15588C67.3867 2.10405 67.273 2.02809 67.1772 1.93233C67.0815 1.83657 67.0055 1.72288 66.9537 1.59777C66.9019 1.47265 66.8752 1.33855 66.8752 1.20312C66.8752 1.0677 66.9019 0.9336 66.9537 0.808483C67.0055 0.683366 67.0815 0.569682 67.1772 0.473921C67.273 0.378161 67.3867 0.302199 67.5118 0.250374C67.6369 0.198549 67.771 0.171875 67.9064 0.171875H86.9688C87.2422 0.172148 87.5043 0.280885 87.6976 0.474223C87.891 0.66756 87.9997 0.929704 88 1.20312ZM78.5589 43.5823C78.1414 25.4758 63.5503 10.8109 45.473 10.2718V14.2785C45.473 14.552 45.3643 14.8143 45.1709 15.0077C44.9775 15.2011 44.7152 15.3098 44.4417 15.3098C44.1682 15.3098 43.9059 15.2011 43.7125 15.0077C43.5191 14.8143 43.4105 14.552 43.4105 14.2785V10.2718C25.6298 10.8029 11.2221 25.0015 10.3589 42.6994H14.1058C14.3793 42.6994 14.6416 42.8081 14.835 43.0015C15.0284 43.1949 15.137 43.4572 15.137 43.7307C15.137 44.0042 15.0284 44.2665 14.835 44.4599C14.6416 44.6533 14.3793 44.7619 14.1058 44.7619H10.3211C10.5188 62.7622 24.7225 77.4604 42.5274 78.4527V74.0666C42.5274 73.7931 42.636 73.5308 42.8294 73.3374C43.0228 73.144 43.2851 73.0354 43.5586 73.0354C43.8321 73.0354 44.0944 73.144 44.2878 73.3374C44.4812 73.5308 44.5899 73.7931 44.5899 74.0666V78.5046C62.9147 78.4266 77.8766 63.8308 78.5419 45.6448H73.8947C73.6212 45.6448 73.3589 45.5362 73.1655 45.3428C72.9721 45.1494 72.8635 44.8871 72.8635 44.6136C72.8635 44.3401 72.9721 44.0778 73.1655 43.8844C73.3589 43.691 73.6212 43.5823 73.8947 43.5823H78.5589ZM44.4415 3.13878C44.168 3.13878 43.9057 3.24743 43.7123 3.44083C43.5189 3.63422 43.4103 3.89653 43.4103 4.17003V8.20755C24.4922 8.74019 9.16094 23.8631 8.29503 42.6994H3.99816C3.72465 42.6994 3.46235 42.8081 3.26895 43.0015C3.07556 43.1949 2.96691 43.4572 2.96691 43.7307C2.96691 44.0042 3.07556 44.2665 3.26895 44.4599C3.46235 44.6533 3.72465 44.7619 3.99816 44.7619H8.25859C8.45797 63.8997 23.585 79.5254 42.5274 80.5186V84.1742C42.5274 84.4477 42.636 84.71 42.8294 84.9034C43.0228 85.0968 43.2851 85.2055 43.5586 85.2055C43.8321 85.2055 44.0944 85.0968 44.2878 84.9034C44.4812 84.71 44.5899 84.4477 44.5899 84.1742V80.5664C64.053 80.4891 79.9391 64.9675 80.6061 45.6448H84.0024C84.2759 45.6448 84.5382 45.5362 84.7316 45.3428C84.925 45.1494 85.0336 44.8871 85.0336 44.6136C85.0336 44.3401 84.925 44.0778 84.7316 43.8844C84.5382 43.691 84.2759 43.5823 84.0024 43.5823H80.6216C80.2024 24.3399 64.6886 8.74844 45.473 8.20755V4.17003C45.473 3.89653 45.3643 3.63422 45.1709 3.44083C44.9775 3.24743 44.7152 3.13878 44.4417 3.13878H44.4415ZM44.4415 35.2057C46.2561 35.2056 48.0299 35.7437 49.5387 36.7518C51.0475 37.7599 52.2234 39.1927 52.9178 40.8692C53.6122 42.5456 53.794 44.3903 53.44 46.17C53.086 47.9497 52.2122 49.5845 50.9291 50.8676C49.646 52.1506 48.0112 53.0244 46.2315 53.3784C44.4518 53.7324 42.6071 53.5507 40.9307 52.8563C39.2543 52.1619 37.8214 50.9859 36.8133 49.4772C35.8052 47.9684 35.2672 46.1946 35.2672 44.38C35.2699 41.9477 36.2373 39.6157 37.9573 37.8957C39.6772 36.1758 42.0092 35.2084 44.4415 35.2057ZM33.2045 44.38C33.2045 42.1575 33.8635 39.9849 35.0983 38.1369C36.333 36.2889 38.088 34.8486 40.1414 33.9981C42.1947 33.1475 44.4541 32.925 46.6339 33.3586C48.8138 33.7922 50.816 34.8624 52.3876 36.434C53.9592 38.0055 55.0294 40.0078 55.463 42.1876C55.8966 44.3674 55.674 46.6269 54.8235 48.6802C53.973 50.7335 52.5326 52.4886 50.6847 53.7233C48.8367 54.958 46.6641 55.6171 44.4415 55.617C41.4624 55.6135 38.6062 54.4285 36.4996 52.3219C34.3931 50.2153 33.208 47.3592 33.2045 44.38ZM47.5891 22.2406L48.1563 26.995C48.1808 27.1992 48.266 27.3914 48.4008 27.5467C48.5356 27.702 48.7138 27.8134 48.9125 27.8664C50.3273 28.2496 51.6866 28.814 52.9566 29.5457C53.135 29.6481 53.3401 29.6948 53.5453 29.6797C53.7505 29.6647 53.9465 29.5886 54.1081 29.4613L57.8741 26.4995C57.8804 26.4946 57.8883 26.4922 57.8962 26.4928C57.9042 26.4934 57.9116 26.4969 57.9171 26.5028L62.3202 30.9069C62.3233 30.9095 62.3259 30.9127 62.3278 30.9163C62.3296 30.9199 62.3306 30.9239 62.3308 30.928C62.3309 30.9321 62.3302 30.9361 62.3287 30.9399C62.3272 30.9437 62.3248 30.9471 62.3219 30.9499L59.3617 34.7139C59.2346 34.8757 59.1588 35.0719 59.1441 35.2771C59.1293 35.4823 59.1763 35.6872 59.279 35.8655C60.0101 37.1363 60.5742 38.4961 60.9574 39.9113C61.0106 40.1102 61.1223 40.2885 61.2779 40.4233C61.4336 40.5581 61.626 40.6432 61.8305 40.6675L66.5823 41.2347C66.5865 41.2348 66.5905 41.2358 66.5943 41.2376C66.598 41.2394 66.6014 41.2419 66.6041 41.2451C66.6069 41.2482 66.6089 41.2518 66.6102 41.2558C66.6115 41.2597 66.6119 41.2639 66.6115 41.268V47.4942C66.6115 47.5136 66.6035 47.5234 66.5823 47.5274L61.8289 48.0946C61.6245 48.1191 61.4321 48.2042 61.2765 48.3389C61.1208 48.4737 61.0091 48.652 60.9556 48.8508C60.5732 50.2655 60.0094 51.6248 59.2783 52.8949C59.1755 53.0736 59.1285 53.2789 59.1434 53.4845C59.1582 53.6901 59.2343 53.8866 59.3617 54.0487L62.3219 57.8127C62.3249 57.8155 62.3272 57.8189 62.3288 57.8227C62.3303 57.8265 62.331 57.8305 62.3309 57.8346C62.3307 57.8387 62.3297 57.8427 62.3278 57.8463C62.326 57.85 62.3234 57.8532 62.3202 57.8557L57.9171 62.2597C57.9145 62.2627 57.9113 62.2653 57.9077 62.2671C57.9042 62.2689 57.9003 62.27 57.8963 62.2704C57.8923 62.2707 57.8882 62.2702 57.8844 62.2689C57.8806 62.2676 57.8771 62.2656 57.8741 62.2629L54.11 59.3012C53.9483 59.1739 53.7521 59.0981 53.5468 59.0835C53.3415 59.0689 53.1366 59.1163 52.9585 59.2194C51.6876 59.9501 50.3275 60.5134 48.9122 60.8953C48.7135 60.9488 48.5354 61.0605 48.4007 61.2159C48.2659 61.3714 48.1807 61.5635 48.1559 61.7677L47.5888 66.5204C47.5887 66.5246 47.5877 66.5287 47.5859 66.5325C47.5842 66.5363 47.5816 66.5396 47.5785 66.5424C47.5754 66.5451 47.5717 66.5472 47.5677 66.5484C47.5637 66.5497 47.5596 66.5501 47.5554 66.5497H41.3292C41.3253 66.5501 41.3212 66.5498 41.3174 66.5486C41.3135 66.5475 41.31 66.5455 41.3069 66.5429C41.3039 66.5403 41.3014 66.5371 41.2997 66.5335C41.2979 66.5299 41.2969 66.526 41.2967 66.522L40.7296 61.7662C40.7051 61.5618 40.62 61.3694 40.4852 61.2137C40.3504 61.0581 40.1721 60.9464 39.9733 60.8929C38.558 60.5109 37.1981 59.9471 35.9277 59.2156C35.7493 59.1129 35.5443 59.0661 35.339 59.0811C35.1338 59.0961 34.9377 59.1723 34.7762 59.2998L31.0102 62.2615C31.0073 62.2642 31.004 62.2662 31.0003 62.2675C30.9966 62.2687 30.9927 62.2692 30.9889 62.2689C30.985 62.2686 30.9812 62.2675 30.9778 62.2657C30.9744 62.2639 30.9714 62.2613 30.969 62.2583L26.5653 57.8548C26.5621 57.8524 26.5594 57.8493 26.5574 57.8457C26.5555 57.8422 26.5543 57.8383 26.5539 57.8342C26.5535 57.8302 26.554 57.8261 26.5553 57.8223C26.5566 57.8184 26.5587 57.8149 26.5614 57.8119L29.523 54.0478C29.6496 53.8858 29.7251 53.6897 29.7399 53.4846C29.7546 53.2795 29.7079 53.0747 29.6056 52.8963C28.8741 51.6258 28.3102 50.2659 27.9281 48.8505C27.8744 48.6518 27.7626 48.4737 27.6071 48.339C27.4515 48.2043 27.2593 48.119 27.055 48.0942L22.3008 47.527C22.2968 47.5267 22.2929 47.5256 22.2893 47.5238C22.2858 47.5219 22.2826 47.5194 22.28 47.5163C22.2775 47.5132 22.2756 47.5096 22.2744 47.5058C22.2732 47.5019 22.2729 47.4979 22.2733 47.4939V41.2672C22.2726 41.2591 22.275 41.2511 22.2802 41.2449C22.2853 41.2386 22.2927 41.2347 22.3008 41.2338L27.055 40.6667C27.2594 40.6421 27.4518 40.557 27.6074 40.4222C27.763 40.2875 27.8747 40.1092 27.9281 39.9104C28.3116 38.4952 28.876 37.1354 29.6074 35.8646C29.7098 35.6862 29.7565 35.4812 29.7414 35.2759C29.7264 35.0707 29.6503 34.8747 29.523 34.7131L26.5614 30.949C26.5587 30.946 26.5566 30.9425 26.5553 30.9386C26.554 30.9348 26.5535 30.9307 26.5539 30.9267C26.5543 30.9226 26.5555 30.9187 26.5574 30.9151C26.5594 30.9116 26.5621 30.9085 26.5653 30.906L30.9686 26.5031C30.974 26.4972 30.9815 26.4936 30.9895 26.493C30.9974 26.4924 31.0053 26.4949 31.0116 26.4999L34.7756 29.4616C34.9373 29.589 35.1333 29.665 35.3385 29.6801C35.5437 29.6951 35.7487 29.6484 35.9272 29.546C37.1976 28.8144 38.5574 28.2505 39.9728 27.8685C40.1716 27.8151 40.3499 27.7034 40.4846 27.5478C40.6194 27.3921 40.7045 27.1998 40.729 26.9954L41.2962 22.2394C41.2964 22.2354 41.2974 22.2315 41.2992 22.2279C41.3009 22.2244 41.3034 22.2212 41.3065 22.2186C41.3095 22.216 41.3131 22.2141 41.3169 22.2129C41.3207 22.2118 41.3248 22.2114 41.3287 22.2119H47.5552C47.5594 22.2115 47.5635 22.2119 47.5675 22.2131C47.5715 22.2144 47.5751 22.2164 47.5783 22.2191C47.5814 22.2219 47.5839 22.2252 47.5857 22.229C47.5875 22.2327 47.5885 22.2368 47.5886 22.241L47.5891 22.2406ZM39.2495 21.995L38.7614 26.0715C37.6402 26.4199 36.5533 26.8704 35.5144 27.4173L32.2852 24.8789C31.8822 24.5626 31.3773 24.4048 30.8658 24.4352C30.3544 24.4657 29.8718 24.6823 29.5092 25.0443L25.106 29.4475C24.744 29.8101 24.5274 30.2927 24.4969 30.8041C24.4665 31.3156 24.6243 31.8204 24.9406 32.2235L27.479 35.4527C26.9319 36.4914 26.4817 37.5783 26.1341 38.6997L22.0567 39.1875C21.5479 39.2484 21.0791 39.4937 20.7389 39.8769C20.3988 40.2602 20.2108 40.7548 20.2106 41.2672V47.4942C20.2111 48.0065 20.3992 48.501 20.7393 48.8841C21.0794 49.2673 21.5481 49.5126 22.0567 49.5739L26.1315 50.0619C26.4796 51.1839 26.9307 52.2714 27.479 53.3103L24.9406 56.5388C24.6242 56.9416 24.4663 57.4464 24.4967 57.9577C24.5272 58.469 24.7439 58.9515 25.106 59.3139L29.5092 63.7156C29.8713 64.0784 30.3539 64.2958 30.8655 64.3265C31.3771 64.3573 31.8823 64.1993 32.2852 63.8825L35.5144 61.3422C36.5528 61.8906 37.6398 62.3417 38.7614 62.6897L39.2495 66.766C39.3105 67.2748 39.5557 67.7437 39.939 68.0839C40.3222 68.4241 40.8168 68.612 41.3292 68.6122H47.5557C48.0682 68.612 48.5628 68.4241 48.946 68.0839C49.3293 67.7437 49.5745 67.2748 49.6354 66.766L50.1236 62.6912C51.2456 62.3432 52.3331 61.8921 53.372 61.3437L56.5981 63.8822C57.0013 64.199 57.5067 64.357 58.0186 64.3263C58.5305 64.2955 59.0134 64.0781 59.3758 63.7153L63.7789 59.3135C64.1411 58.9513 64.358 58.4688 64.3885 57.9574C64.419 57.446 64.261 56.9412 63.9444 56.5385L61.4042 53.3084C61.9529 52.2703 62.404 51.1835 62.7517 50.062L66.8281 49.5741C67.3367 49.5128 67.8054 49.2674 68.1455 48.8843C68.4856 48.5011 68.6737 48.0067 68.6742 47.4944V41.2672C68.6742 40.7547 68.4863 40.26 68.146 39.8768C67.8058 39.4935 67.3369 39.2483 66.8281 39.1875L62.7533 38.6994C62.4045 37.5776 61.9534 36.4902 61.4058 35.4509L63.9444 32.2233C64.261 31.8204 64.419 31.3154 64.3885 30.8039C64.358 30.2924 64.1411 29.8098 63.7789 29.4473L59.3758 25.0441C59.0132 24.6823 58.5307 24.4658 58.0195 24.4353C57.5082 24.4049 57.0035 24.5626 56.6005 24.8787L53.3705 27.4196C52.3325 26.8707 51.2457 26.4193 50.1242 26.0714L49.6361 21.9948C49.5749 21.4862 49.3295 21.0176 48.9463 20.6774C48.5632 20.3373 48.0688 20.1493 47.5564 20.1487H41.3292C40.8168 20.149 40.3222 20.3371 39.939 20.6773C39.5558 21.0175 39.3105 21.4862 39.2495 21.995Z" fill="#191E29"/>
</g>
<defs>
<clipPath id="clip0_552_1134">
<rect width="88" height="88" fill="white"/>
</clipPath>
</defs>
</svg>
