<svg width="36" height="37" viewBox="0 0 36 37" fill="none" xmlns="http://www.w3.org/2000/svg">
<path fill-rule="evenodd" clip-rule="evenodd" d="M6.56582 3.17092C6.1652 3.17092 5.83852 3.49762 5.83852 3.89826L5.83859 33.1021C5.83859 33.5028 6.16516 33.8294 6.56582 33.8294L29.4343 33.8294C29.8357 33.8294 30.1615 33.5028 30.1615 33.1021L30.1617 3.89823C30.1617 3.49757 29.8356 3.17093 29.4342 3.17093L6.56582 3.17092ZM29.4343 34.6731H6.56582C5.70015 34.6731 4.99475 33.9679 4.99475 33.1021L4.99483 3.89824C4.99483 3.03248 5.70008 2.32719 6.56582 2.32719L29.4343 2.32715C30.3008 2.32715 31.0053 3.03252 31.0053 3.89824L31.0054 33.1021C31.0054 33.9678 30.3007 34.6732 29.4343 34.6731Z" fill="white"/>
<path fill-rule="evenodd" clip-rule="evenodd" d="M8.26581 11.8897H12.795V10.7031C12.795 10.0491 12.2633 9.51662 11.6085 9.51662L9.45233 9.5166C8.79826 9.5166 8.26573 10.0491 8.26573 10.7031L8.26581 11.8897ZM13.2169 12.7334H7.84396C7.61111 12.7334 7.422 12.5445 7.422 12.3115L7.42208 10.7031C7.42208 9.58325 8.33314 8.67287 9.45227 8.67287L11.6085 8.67285C12.7285 8.67285 13.6388 9.58327 13.6388 10.7031L13.6388 12.3115C13.6388 12.5444 13.4498 12.7334 13.2169 12.7334Z" fill="white"/>
<path fill-rule="evenodd" clip-rule="evenodd" d="M10.5304 5.30369C9.94082 5.30369 9.46106 5.78345 9.46106 6.37378C9.4611 6.96337 9.9408 7.44311 10.5304 7.44311C11.1207 7.44309 11.6005 6.96337 11.6005 6.37378C11.6006 5.78345 11.1207 5.30371 10.5304 5.30369ZM10.5304 8.28684C9.47576 8.28684 8.61731 7.42847 8.61731 6.37378C8.61735 5.31835 9.47572 4.45996 10.5304 4.45996C11.586 4.45994 12.4442 5.31835 12.4442 6.37378C12.4442 7.42847 11.5858 8.28686 10.5304 8.28684Z" fill="white"/>
<path fill-rule="evenodd" clip-rule="evenodd" d="M28.1562 7.16113H16.2002C15.9671 7.16113 15.7781 6.97218 15.7781 6.73926C15.7783 6.50631 15.9671 6.31738 16.2 6.31738H28.1562C28.3891 6.31738 28.578 6.50635 28.578 6.73926C28.5781 6.97216 28.389 7.16113 28.1562 7.16113Z" fill="white"/>
<path fill-rule="evenodd" clip-rule="evenodd" d="M28.1562 10.876H16.2002C15.9671 10.876 15.7781 10.687 15.7781 10.4541C15.7783 10.2212 15.9671 10.0322 16.2 10.0322H28.1562C28.3891 10.0322 28.578 10.2212 28.578 10.4541C28.5781 10.687 28.389 10.876 28.1562 10.876Z" fill="white"/>
<path fill-rule="evenodd" clip-rule="evenodd" d="M8.26581 21.7925H12.795V20.606C12.795 19.9519 12.2633 19.4195 11.6085 19.4195L9.45233 19.4194C8.79826 19.4194 8.26573 19.9519 8.26573 20.606L8.26581 21.7925ZM13.2169 22.6362H7.84396C7.61111 22.6362 7.422 22.4473 7.422 22.2144L7.42208 20.606C7.42208 19.4868 8.33314 18.5757 9.45227 18.5757L11.6085 18.5757C12.7285 18.5757 13.6388 19.4868 13.6388 20.606L13.6388 22.2144C13.6388 22.4473 13.4498 22.6363 13.2169 22.6362Z" fill="white"/>
<path fill-rule="evenodd" clip-rule="evenodd" d="M10.5304 15.2075C9.94082 15.2075 9.46106 15.6873 9.46106 16.2769C9.4611 16.8664 9.9408 17.3469 10.5304 17.3469C11.1207 17.3469 11.6005 16.8664 11.6005 16.2769C11.6006 15.6872 11.1207 15.2075 10.5304 15.2075ZM10.5304 18.1906C9.47576 18.1906 8.61731 17.3323 8.61731 16.2769C8.61735 15.2222 9.47572 14.3638 10.5304 14.3638C11.586 14.3637 12.4442 15.2222 12.4442 16.2769C12.4442 17.3323 11.5858 18.1907 10.5304 18.1906Z" fill="white"/>
<path fill-rule="evenodd" clip-rule="evenodd" d="M28.1562 17.0649H16.2002C15.9671 17.0649 15.7781 16.876 15.7781 16.6431C15.7783 16.4094 15.9671 16.2212 16.2 16.2212H28.1562C28.3891 16.2212 28.578 16.4094 28.578 16.6431C28.5781 16.876 28.389 17.0649 28.1562 17.0649Z" fill="white"/>
<path fill-rule="evenodd" clip-rule="evenodd" d="M28.1562 20.7788H16.2002C15.9671 20.7788 15.7781 20.5899 15.7781 20.357C15.7783 20.1241 15.9671 19.9351 16.2 19.9351L28.1562 19.9351C28.3891 19.9351 28.578 20.1241 28.578 20.357C28.5781 20.5898 28.389 20.7788 28.1562 20.7788Z" fill="white"/>
<path fill-rule="evenodd" clip-rule="evenodd" d="M8.26581 31.6963H12.795V30.5098C12.795 29.855 12.2633 29.3233 11.6085 29.3233L9.45233 29.3232C8.79826 29.3232 8.26573 29.855 8.26573 30.5098L8.26581 31.6963ZM13.2169 32.54H7.84396C7.61111 32.54 7.422 32.3511 7.422 32.1182L7.42208 30.5098C7.42208 29.3899 8.33314 28.4795 9.45227 28.4795L11.6085 28.4795C12.7285 28.4795 13.6388 29.3899 13.6388 30.5098L13.6388 32.1182C13.6388 32.3511 13.4498 32.5401 13.2169 32.54Z" fill="white"/>
<path fill-rule="evenodd" clip-rule="evenodd" d="M10.5304 25.1104C9.94082 25.1104 9.46106 25.5901 9.46106 26.1804C9.4611 26.77 9.9408 27.2498 10.5304 27.2498C11.1207 27.2497 11.6005 26.77 11.6005 26.1804C11.6006 25.5901 11.1207 25.1104 10.5304 25.1104ZM10.5304 28.0935C9.47576 28.0935 8.61731 27.2351 8.61731 26.1804C8.61735 25.125 9.47572 24.2666 10.5304 24.2666C11.586 24.2666 12.4442 25.125 12.4442 26.1804C12.4442 27.2351 11.5858 28.0935 10.5304 28.0935Z" fill="white"/>
<path fill-rule="evenodd" clip-rule="evenodd" d="M28.1562 26.9678H16.2002C15.9671 26.9678 15.7781 26.7788 15.7781 26.5459C15.7783 26.313 15.9671 26.1241 16.2 26.1241L28.1562 26.124C28.3891 26.124 28.578 26.313 28.578 26.5459C28.5781 26.7788 28.389 26.9678 28.1562 26.9678Z" fill="white"/>
<path fill-rule="evenodd" clip-rule="evenodd" d="M28.1562 30.6826H16.2002C15.9671 30.6826 15.7781 30.4937 15.7781 30.2608C15.7783 30.0279 15.9671 29.8389 16.2 29.8389L28.1562 29.8389C28.3891 29.8389 28.578 30.0279 28.578 30.2608C28.5781 30.4936 28.389 30.6826 28.1562 30.6826Z" fill="white"/>
</svg>
