<svg width="88" height="88" viewBox="0 0 88 88" fill="none" xmlns="http://www.w3.org/2000/svg">
<path d="M37.125 85.25C41.9637 85.25 45.9694 81.6566 46.6402 77H61.3057L59.5278 78.7778L61.4722 80.7222L65.5972 76.5972C65.8657 76.3286 66 75.9768 66 75.625C66 75.2732 65.8657 74.9214 65.5972 74.6528L61.4722 70.5278L59.5278 72.4722L61.3057 74.25H46.6402C45.9694 69.5934 41.9637 66 37.125 66C31.8184 66 27.5 70.3177 27.5 75.625C27.5 80.9323 31.8184 85.25 37.125 85.25ZM37.125 68.75C40.9157 68.75 44 71.8343 44 75.625C44 79.4157 40.9157 82.5 37.125 82.5C33.3343 82.5 30.25 79.4157 30.25 75.625C30.25 71.8343 33.3343 68.75 37.125 68.75Z" fill="#191E29"/>
<path d="M75.625 85.25C80.9316 85.25 85.25 80.9323 85.25 75.625C85.25 70.3177 80.9316 66 75.625 66C70.3184 66 66 70.3177 66 75.625C66 80.9323 70.3184 85.25 75.625 85.25ZM75.625 68.75C79.4157 68.75 82.5 71.8343 82.5 75.625C82.5 79.4157 79.4157 82.5 75.625 82.5C71.8343 82.5 68.75 79.4157 68.75 75.625C68.75 71.8343 71.8343 68.75 75.625 68.75Z" fill="#191E29"/>
<path d="M31.625 34.375C26.7863 34.375 22.7807 37.9684 22.1099 42.625H19.9375C10.4602 42.625 2.75 50.3352 2.75 59.8125C2.75 69.2898 10.4602 77 19.9375 77H22.8057L21.0278 78.7778L22.9722 80.7222L27.0972 76.5972C27.3657 76.3286 27.5 75.9768 27.5 75.625C27.5 75.2732 27.3657 74.9214 27.0972 74.6528L22.9722 70.5278L21.0278 72.4722L22.8057 74.25H19.9375C11.9762 74.25 5.5 67.7731 5.5 59.8125C5.5 51.8519 11.9762 45.375 19.9375 45.375H22.1099C22.7807 50.0316 26.7863 53.625 31.625 53.625C36.9316 53.625 41.25 49.3073 41.25 44C41.25 38.6927 36.9316 34.375 31.625 34.375ZM31.625 50.875C27.8343 50.875 24.75 47.7907 24.75 44C24.75 40.2093 27.8343 37.125 31.625 37.125C35.4157 37.125 38.5 40.2093 38.5 44C38.5 47.7907 35.4157 50.875 31.625 50.875Z" fill="#191E29"/>
<path d="M36.7222 7.27783L34.7778 9.22217L36.5557 11H21.8902C21.2194 6.34343 17.2137 2.75 12.375 2.75C7.06835 2.75 2.75 7.06769 2.75 12.375C2.75 17.6823 7.06835 22 12.375 22C17.2137 22 21.2194 18.4066 21.8902 13.75H36.5557L34.7778 15.5278L36.7222 17.4722L40.8472 13.3472C41.1157 13.0786 41.25 12.7268 41.25 12.375C41.25 12.0232 41.1157 11.6714 40.8472 11.4028L36.7222 7.27783ZM12.375 19.25C8.58434 19.25 5.5 16.1657 5.5 12.375C5.5 8.58434 8.58434 5.5 12.375 5.5C16.1657 5.5 19.25 8.58434 19.25 12.375C19.25 16.1657 16.1657 19.25 12.375 19.25Z" fill="#191E29"/>
<path d="M85.25 28.1875C85.25 18.7102 77.5398 11 68.0625 11H60.3902C59.7194 6.34343 55.7137 2.75 50.875 2.75C45.5684 2.75 41.25 7.06769 41.25 12.375C41.25 17.6823 45.5684 22 50.875 22C55.7137 22 59.7194 18.4066 60.3902 13.75H68.0625C76.0238 13.75 82.5 20.2269 82.5 28.1875C82.5 36.1481 76.0238 42.625 68.0625 42.625H45.9443L47.7222 40.8472L45.7778 38.9028L41.6528 43.0278C41.3843 43.2964 41.25 43.6482 41.25 44C41.25 44.3518 41.3843 44.7036 41.6528 44.9722L45.7778 49.0972L47.7222 47.1528L45.9443 45.375H68.0625C77.5398 45.375 85.25 37.6648 85.25 28.1875ZM50.875 19.25C47.0843 19.25 44 16.1657 44 12.375C44 8.58434 47.0843 5.5 50.875 5.5C54.6657 5.5 57.75 8.58434 57.75 12.375C57.75 16.1657 54.6657 19.25 50.875 19.25Z" fill="#191E29"/>
</svg>
