<svg width="88" height="88" viewBox="0 0 88 88" fill="none" xmlns="http://www.w3.org/2000/svg">
<path fill-rule="evenodd" clip-rule="evenodd" d="M66.3438 71.3281C65.8281 71.3281 65.4844 71.1562 65.3125 70.6406L59.6406 58.2656C59.2969 57.5781 59.6406 56.8906 60.1562 56.7188C60.8438 56.375 61.5312 56.7188 61.7031 57.2344L67.375 69.6094C67.7188 70.2969 67.375 70.9844 66.8594 71.1562C66.6875 71.3281 66.5156 71.3281 66.3438 71.3281ZM26.6406 59.125C26.125 59.125 25.6094 58.7812 25.4375 58.2656C25.2656 57.5781 25.6094 56.8906 26.2969 56.7188L48.2969 50.875C48.9844 50.7031 49.6719 51.0469 49.8438 51.7344C50.0156 52.4219 49.6719 53.1094 48.9844 53.2812L26.9844 59.125C26.8125 59.125 26.8125 59.125 26.6406 59.125ZM22.5156 53.7969C22.3438 53.7969 22.1719 53.7969 22 53.625C21.3125 53.2812 21.1406 52.5938 21.4844 52.0781L41.7656 17.0156C42.1094 16.3281 42.7969 16.1562 43.4844 16.5C44 16.8438 44.1719 17.5312 43.8281 18.2188L23.5469 53.2812C23.375 53.625 22.8594 53.7969 22.5156 53.7969Z" fill="black"/>
<path fill-rule="evenodd" clip-rule="evenodd" d="M18.0469 70.125C17.3594 70.125 16.5 69.9531 15.6406 69.7812C12.8906 69.0938 10.8281 67.5469 9.45312 65.3125V65.1406C8.07812 62.9062 7.73438 60.1562 8.42188 57.5781C9.28125 55 10.8281 52.9375 13.0625 51.5625C15.4688 50.1875 18.0469 49.8438 20.625 50.5312C23.2031 51.2188 25.2656 52.9375 26.6406 55.3438C28.0156 57.5781 28.3594 60.1562 27.6719 62.7344C26.9844 65.3125 25.4375 67.375 23.0312 68.75C21.6562 69.6094 19.9375 70.125 18.0469 70.125ZM11.5156 64.1094C12.5469 65.6562 14.2656 67.0312 16.1562 67.375C18.2188 67.8906 20.2812 67.7188 22 66.6875C23.7188 65.6562 24.9219 64.1094 25.4375 62.0469C25.7812 60.1562 25.6094 58.0938 24.5781 56.375C23.5469 54.6562 22 53.4531 20.1094 52.9375C18.0469 52.25 16.1562 52.5938 14.4375 53.625C10.8281 55.6875 9.45312 60.3281 11.5156 64.1094Z" fill="black"/>
<path fill-rule="evenodd" clip-rule="evenodd" d="M47.0938 19.9375C43.6563 19.9375 40.3906 18.0469 38.5 14.7812C37.125 12.5469 36.7813 9.96875 37.6406 7.39062C38.3281 4.8125 39.875 2.75 42.2813 1.375C44.5156 0 47.0938 -0.34375 49.6719 0.34375C52.25 1.03125 54.3125 2.57812 55.6875 4.8125V4.98438C57.0625 7.21875 57.4063 9.96875 56.7188 12.5469C56.0313 15.125 54.4844 17.1875 52.25 18.5625C50.5313 19.4219 48.8125 19.9375 47.0938 19.9375ZM47.0938 2.40625C45.8906 2.40625 44.5156 2.75 43.4844 3.4375C41.5938 4.46875 40.3906 6.01562 39.875 8.07812C39.3594 9.96875 39.5313 12.0312 40.5625 13.5781V13.75C41.5938 15.4688 43.1406 16.6719 45.2031 17.1875C47.0938 17.7031 49.1563 17.5312 51.0469 16.5C54.4844 14.4375 55.6875 9.79688 53.625 6.1875C52.5938 4.46875 51.0469 3.26562 49.1563 2.75C48.4688 2.57812 47.7813 2.40625 47.0938 2.40625Z" fill="black"/>
<path fill-rule="evenodd" clip-rule="evenodd" d="M57.0625 59.8125C56.2031 59.8125 55.3438 59.6406 54.4844 59.4688C51.9062 58.6094 49.8438 57.0625 48.4688 54.8281C47.0938 52.4219 46.75 49.8438 47.4375 47.2656C48.125 44.6875 49.6719 42.625 51.9062 41.25H52.0781C54.3125 39.875 57.0625 39.5312 59.6406 40.2188C62.2188 40.9062 64.2812 42.4531 65.6562 44.8594C67.0312 47.0938 67.375 49.6719 66.6875 52.4219C65.8281 55 64.2812 57.0625 62.0469 58.4375C60.5 59.2969 58.7812 59.8125 57.0625 59.8125ZM53.2812 43.3125C51.5625 44.3438 50.3594 45.8906 49.8438 47.9531C49.3281 49.8438 49.5 51.9062 50.5312 53.625C51.5625 55.3438 53.1094 56.5469 55.1719 57.0625C57.0625 57.5781 59.125 57.4062 60.8438 56.375C62.3906 55.3438 63.7656 53.625 64.2812 51.7344C64.7969 49.6719 64.625 47.6094 63.5938 45.8906C61.5312 42.4531 56.8906 41.25 53.2812 43.3125Z" fill="black"/>
<path fill-rule="evenodd" clip-rule="evenodd" d="M69.9531 88C69.0938 88 68.2344 87.8281 67.375 87.6562C64.7969 86.9688 62.7344 85.4219 61.3594 83.1875V83.0156C59.9844 80.7812 59.6406 78.0312 60.3281 75.4531C61.0156 72.875 62.5625 70.8125 64.9688 69.4375C67.2031 68.0625 69.9531 67.7188 72.5312 68.4062C75.1094 69.0938 77.3438 70.8125 78.5469 73.2188C79.9219 75.4531 80.2656 78.0312 79.5781 80.6094C78.7188 83.1875 77.1719 85.25 74.9375 86.625C73.3906 87.4844 71.6719 88 69.9531 88ZM63.4219 81.9844C64.4531 83.5312 66 84.9062 68.0625 85.25C69.9531 85.7656 72.0156 85.5938 73.7344 84.5625C75.4531 83.5312 76.6562 81.9844 77.1719 79.9219C77.6875 78.0312 77.5156 75.9688 76.4844 74.4219V74.25C75.4531 72.5312 73.9062 71.3281 71.8438 70.8125C69.9531 70.2969 67.8906 70.4688 66 71.5C62.5625 73.5625 61.3594 78.2031 63.4219 81.9844Z" fill="black"/>
</svg>
