<svg width="88" height="88" viewBox="0 0 88 88" fill="none" xmlns="http://www.w3.org/2000/svg">
<g clip-path="url(#clip0_589_10314)">
<path fill-rule="evenodd" clip-rule="evenodd" d="M28.4569 75.9883C27.7352 75.9883 27.2196 75.2666 27.4774 74.5964L38.0457 47.1189H27.6321C26.9619 47.1189 26.4464 46.3972 26.6526 45.727L38.5612 12.6819C38.7158 12.2695 39.0767 12.0117 39.5407 12.0117H60.3163C61.1411 12.0117 61.6567 12.8366 61.2442 13.5583L48.253 36.0352H59.5946C60.471 36.0352 60.9349 37.0662 60.3679 37.7364L29.2302 75.6274C29.024 75.8336 28.7147 75.9883 28.4569 75.9883ZM29.1271 45.0568H39.5407C40.2624 45.0568 40.7779 45.7786 40.5202 46.4487L31.7047 69.3896L57.3778 38.0972H46.4487C45.6754 38.0972 45.1599 37.2724 45.5723 36.5507L58.5635 14.0738H40.2624L29.1271 45.0568Z" fill="black"/>
<path fill-rule="evenodd" clip-rule="evenodd" d="M43.9742 87.9484C19.7446 87.9484 0 68.2554 0 43.9742C0 19.7446 19.7446 0 43.9742 0C68.2554 0 87.9484 19.7446 87.9484 43.9742C87.9484 68.2554 68.2554 87.9484 43.9742 87.9484ZM43.9742 2.0621C20.8787 2.0621 2.0621 20.8787 2.0621 43.9742C2.0621 67.1213 20.8787 85.8863 43.9742 85.8863C67.1213 85.8863 85.8863 67.1213 85.8863 43.9742C85.8863 20.8787 67.1213 2.0621 43.9742 2.0621Z" fill="black"/>
</g>
<defs>
<clipPath id="clip0_589_10314">
<rect width="88" height="88" fill="white"/>
</clipPath>
</defs>
</svg>
