<svg width="42" height="44" viewBox="0 0 42 44" fill="none" xmlns="http://www.w3.org/2000/svg">
<path d="M39.3195 39.9864C40.5776 38.3742 41.3283 36.3475 41.3283 34.1486C41.3283 29.3812 37.8007 25.4227 33.2188 24.7449V7.33045C33.2188 5.67495 31.873 4.32805 30.2188 4.32805H25.6687C25.431 3.2118 24.4378 2.37185 23.2518 2.37185H21.0085C20.0502 1.09809 18.5513 0.345703 16.9449 0.345703C15.3385 0.345703 13.8397 1.09809 12.8814 2.37185H10.6381C9.45203 2.37185 8.45885 3.2118 8.22115 4.32805H3.67101C2.0168 4.32805 0.671021 5.67486 0.671021 7.33045V40.6553C0.671021 42.3095 2.0168 43.6553 3.67101 43.6553H31.2662C31.327 43.6553 31.3809 43.6518 31.4333 43.6467C31.5622 43.6519 31.6915 43.6553 31.8216 43.6553C34.8226 43.6553 37.5027 42.2572 39.2462 40.0787C39.2742 40.0509 39.2985 40.0198 39.3194 39.9865L39.3195 39.9864ZM40.2979 34.1486C40.2979 35.7694 39.8403 37.2853 39.048 38.5742C38.3446 37.0965 36.7952 35.986 34.6608 35.4373C35.5058 34.6401 36.0348 33.5113 36.0348 32.2607C36.0348 29.8516 34.0749 27.8917 31.6658 27.8917C29.2568 27.8917 27.2969 29.8516 27.2969 32.2607C27.2969 33.5129 27.8272 34.6429 28.6741 35.4403C26.6907 35.953 25.1941 36.9621 24.4321 38.2963C23.7408 37.0695 23.3455 35.6544 23.3455 34.1485C23.3455 29.4747 27.1479 25.6723 31.8217 25.6723C36.4955 25.6723 40.2978 29.4747 40.2978 34.1485L40.2979 34.1486ZM28.3273 32.2607C28.3273 30.4199 29.825 28.9222 31.6658 28.9222C33.5067 28.9222 35.0044 30.4199 35.0044 32.2607C35.0044 34.1016 33.5067 35.5993 31.6658 35.5993C29.825 35.5993 28.3273 34.1016 28.3273 32.2607ZM8.57151 8.23545C8.60709 8.24327 8.64404 8.24766 8.68194 8.24766C8.71984 8.24766 8.75679 8.24327 8.79237 8.23545H25.0975C25.133 8.24327 25.17 8.24766 25.2079 8.24766C25.2458 8.24766 25.2827 8.24327 25.3183 8.23545H29.3114V24.9792C25.2837 26.083 22.3152 29.7754 22.3152 34.1487C22.3152 36.202 22.9696 38.1052 24.0807 39.661C24.0974 39.6892 24.1167 39.7157 24.1386 39.7404C24.1404 39.7429 24.1422 39.7454 24.1441 39.7479H4.57843V8.23545H8.57151ZM32.1884 7.33045V24.6498C32.0667 24.6451 31.9446 24.642 31.8218 24.642C31.3185 24.642 30.8243 24.6817 30.3419 24.7575V7.72026C30.3419 7.43572 30.1112 7.20506 29.8267 7.20506H25.7232V5.35852H30.2188C31.3048 5.35852 32.1883 6.24316 32.1883 7.33045H32.1884ZM10.6381 3.40233H13.1472C13.319 3.40233 13.4796 3.31665 13.5752 3.17391C14.3407 2.03145 15.5689 1.37627 16.9449 1.37627C18.3209 1.37627 19.5492 2.03154 20.3146 3.17391C20.4103 3.31665 20.5708 3.40233 20.7427 3.40233H23.2518C24.0463 3.40233 24.6927 4.04875 24.6927 4.84333V7.20506H9.19714V4.84333C9.19714 4.04875 9.84356 3.40233 10.6381 3.40233ZM3.6711 42.6248C2.58511 42.6248 1.70158 41.7413 1.70158 40.6553V7.33045C1.70158 6.24316 2.58511 5.35852 3.6711 5.35852H8.16675V7.20506H4.06323C3.77869 7.20506 3.54804 7.43572 3.54804 7.72026V40.2631C3.54804 40.5476 3.77869 40.7783 4.06323 40.7783H25.0154C25.7404 41.5224 26.5856 42.1487 27.52 42.6248H3.6711ZM31.8217 42.6248C29.0851 42.6248 26.6475 41.3207 25.0968 39.3017C25.6616 37.7634 27.4182 36.6344 29.8721 36.2429C30.4197 36.4906 31.0267 36.6297 31.6658 36.6297C32.305 36.6297 32.9147 36.49 33.4634 36.2412C36.0815 36.6601 37.8717 37.8935 38.3239 39.5797C36.7679 41.4396 34.4308 42.6248 31.8217 42.6248ZM13.0047 16.6653C13.0047 16.3808 13.2353 16.1501 13.5199 16.1501H26.7256C27.0102 16.1501 27.2408 16.3808 27.2408 16.6653C27.2408 16.9499 27.0102 17.1805 26.7256 17.1805H13.5199C13.2353 17.1805 13.0047 16.9499 13.0047 16.6653ZM13.0047 19.5959C13.0047 19.3113 13.2353 19.0807 13.5199 19.0807H26.7256C27.0102 19.0807 27.2408 19.3113 27.2408 19.5959C27.2408 19.8804 27.0102 20.1111 26.7256 20.1111H13.5199C13.2353 20.1111 13.0047 19.8804 13.0047 19.5959ZM13.0047 13.7324C13.0047 13.4478 13.2353 13.2172 13.5199 13.2172H26.7256C27.0102 13.2172 27.2408 13.4478 27.2408 13.7324C27.2408 14.0169 27.0102 14.2476 26.7256 14.2476H13.5199C13.2353 14.2476 13.0047 14.0169 13.0047 13.7324ZM13.0047 10.8018C13.0047 10.5173 13.2353 10.2866 13.5199 10.2866H26.7256C27.0102 10.2866 27.2408 10.5173 27.2408 10.8018C27.2408 11.0863 27.0102 11.317 26.7256 11.317H13.5199C13.2353 11.317 13.0047 11.0863 13.0047 10.8018ZM13.0047 22.5263C13.0047 22.2418 13.2353 22.0111 13.5199 22.0111H26.7256C27.0102 22.0111 27.2408 22.2418 27.2408 22.5263C27.2408 22.8109 27.0102 23.0415 26.7256 23.0415H13.5199C13.2353 23.0415 13.0047 22.8109 13.0047 22.5263ZM11.0438 34.6153L9.9429 35.7162L11.0438 36.8172C11.245 37.0184 11.245 37.3446 11.0438 37.5459C10.9433 37.6465 10.8114 37.6968 10.6796 37.6968C10.5477 37.6968 10.4158 37.6465 10.3153 37.5459L9.21432 36.445L8.11329 37.5459C7.91211 37.7472 7.58581 37.7472 7.38463 37.5459C7.18345 37.3447 7.18345 37.0185 7.38463 36.8172L8.48558 35.7162L7.38463 34.6153C7.18345 34.4141 7.18345 34.0879 7.38463 33.8866C7.58581 33.6853 7.91211 33.6853 8.11329 33.8866L9.21432 34.9875L10.3153 33.8866C10.5164 33.6853 10.8428 33.6853 11.0439 33.8866C11.2451 34.0878 11.2451 34.414 11.0439 34.6153H11.0438ZM11.044 28.7516L9.94256 29.8539L11.044 30.9563C11.2451 31.1576 11.2449 31.4838 11.0437 31.685C10.9431 31.7854 10.8113 31.8357 10.6796 31.8357C10.5478 31.8357 10.4157 31.7853 10.3151 31.6846L9.21432 30.5829L8.11347 31.6846C7.91229 31.886 7.58607 31.8861 7.3848 31.685C7.18354 31.4839 7.18336 31.1576 7.38446 30.9563L8.48592 29.8539L7.38446 28.7516C7.18336 28.5503 7.18354 28.2241 7.3848 28.0229C7.58607 27.8217 7.91229 27.822 8.11347 28.0232L9.21432 29.1249L10.3151 28.0232C10.5162 27.8219 10.8424 27.8218 11.0438 28.0229C11.245 28.224 11.2452 28.5503 11.0441 28.7516H11.044ZM6.71818 17.6392C6.57587 17.3928 6.66026 17.0776 6.90665 16.9353C7.15303 16.7931 7.46825 16.8774 7.61047 17.1238L8.44381 18.5666L10.8996 16.1087C11.1008 15.9075 11.427 15.9073 11.6283 16.1084C11.8296 16.3095 11.8297 16.6358 11.6287 16.8371L8.6981 19.7701C8.60082 19.8674 8.46942 19.9211 8.33364 19.9211C8.31129 19.9211 8.28886 19.9197 8.26652 19.9168C8.10771 19.8959 7.96754 19.8023 7.88745 19.6636L6.71818 17.6393V17.6392ZM6.71836 11.9684C6.57587 11.7221 6.66009 11.4069 6.90639 11.2645C7.15277 11.1221 7.46782 11.2062 7.6103 11.4525L8.44364 12.8936L10.8998 10.4375C11.101 10.2363 11.4272 10.2362 11.6285 10.4375C11.8297 10.6387 11.8297 10.9649 11.6285 11.1662L8.69793 14.0967C8.60073 14.1939 8.46933 14.2476 8.33364 14.2476C8.31129 14.2476 8.28895 14.2462 8.26652 14.2433C8.10771 14.2224 7.96772 14.129 7.88754 13.9903L6.71827 11.9685L6.71836 11.9684ZM13.0047 37.1815C13.0047 36.897 13.2353 36.6663 13.5199 36.6663H20.789C21.0735 36.6663 21.3042 36.897 21.3042 37.1815C21.3042 37.4661 21.0735 37.6967 20.789 37.6967H13.5199C13.2353 37.6967 13.0047 37.4661 13.0047 37.1815ZM6.71818 23.6903C6.57587 23.4439 6.66026 23.1288 6.90665 22.9865C7.15303 22.8442 7.46825 22.9284 7.61047 23.1749L8.44398 24.618L10.8999 22.1621C11.1011 21.9609 11.4274 21.9609 11.6286 22.1621C11.8297 22.3633 11.8297 22.6895 11.6286 22.8908L8.69801 25.8214C8.60082 25.9186 8.46942 25.9723 8.33372 25.9723C8.31138 25.9723 8.28895 25.9708 8.26652 25.9679C8.10771 25.947 7.96763 25.8534 7.88754 25.7148L6.71827 23.6905L6.71818 23.6903ZM13.0047 34.251C13.0047 33.9664 13.2353 33.7358 13.5199 33.7358H20.4139C20.6984 33.7358 20.9291 33.9664 20.9291 34.251C20.9291 34.5355 20.6984 34.7662 20.4139 34.7662H13.5199C13.2353 34.7662 13.0047 34.5355 13.0047 34.251ZM13.0047 25.4569C13.0047 25.1724 13.2353 24.9417 13.5199 24.9417H24.0654C24.35 24.9417 24.5806 25.1724 24.5806 25.4569C24.5806 25.7414 24.35 25.9721 24.0654 25.9721H13.5199C13.2353 25.9721 13.0047 25.7414 13.0047 25.4569ZM13.0047 28.3875C13.0047 28.1029 13.2353 27.8723 13.5199 27.8723H21.778C22.0626 27.8723 22.2932 28.1029 22.2932 28.3875C22.2932 28.672 22.0626 28.9026 21.778 28.9026H13.5199C13.2353 28.9026 13.0047 28.672 13.0047 28.3875ZM13.0047 31.3204C13.0047 31.0359 13.2353 30.8052 13.5199 30.8052H20.482C20.7666 30.8052 20.9972 31.0359 20.9972 31.3204C20.9972 31.605 20.7666 31.8356 20.482 31.8356H13.5199C13.2353 31.8356 13.0047 31.605 13.0047 31.3204Z" fill="black"/>
</svg>
