<svg width="42" height="42" viewBox="0 0 42 42" fill="none" xmlns="http://www.w3.org/2000/svg">
<path fill-rule="evenodd" clip-rule="evenodd" d="M15.5825 21.5825C15.2448 21.7136 15.0966 21.9426 15.235 22.3044L16.049 24.4371C16.0473 24.4377 16.1839 24.9586 16.7828 24.7261L15.5825 21.5829V21.5825ZM23.1683 15.7619L26.2457 23.8207C26.4198 24.2767 26.9433 24.0666 26.7693 23.6108L23.6918 15.552C23.5134 15.0848 22.9986 15.3176 23.1683 15.7619ZM20.9185 23.5407L19.4348 19.6554C20.6585 18.9047 21.7121 17.9069 22.5282 16.7259L25.1621 23.6235C23.7691 23.2979 22.3232 23.2697 20.9185 23.5407ZM18.9362 25.2529L19.7956 27.504C20.0333 28.1264 20.7821 27.8292 20.5444 27.2067L19.6871 24.9613L18.9362 25.2528V25.2529ZM19.7588 23.9255L17.779 24.6941L16.3383 20.9214L18.578 20.0518L20.0187 23.8245L19.7588 23.9254V23.9255ZM26.5795 20.4737L25.6408 18.0145C26.6269 18.3077 27.1052 19.5964 26.5798 20.4737H26.5795ZM25.2602 17.019C26.8904 17.0104 28.0796 18.7392 27.6493 20.3355C27.5346 20.7734 27.2954 21.1686 26.9606 21.4732L27.6491 23.2758C28.0233 24.2555 27.2967 25.0617 26.4652 25.0147C26.2604 24.9945 26.0607 24.9384 25.8752 24.8491C25.3003 24.579 24.4027 24.3752 23.4076 24.3149C22.5213 24.2532 21.6309 24.3298 20.7682 24.5418L20.5648 24.6206L21.4242 26.8717C21.8379 27.9552 21.0375 28.8389 20.1252 28.7873C19.638 28.7597 19.1565 28.4718 18.9149 27.8393L18.0579 25.595C17.9349 25.642 17.803 25.6608 17.6718 25.6501C17.5406 25.6393 17.4135 25.5993 17.2998 25.5329L16.9784 25.6588C16.2565 25.9381 15.4515 25.5042 15.1699 24.7737L14.354 22.64C14.0728 21.9035 14.3773 21.0421 15.1103 20.7576L15.4175 20.6383C15.4558 20.5093 15.523 20.3908 15.6141 20.2918C15.7051 20.1928 15.8176 20.1158 15.9429 20.0669L18.644 19.0184C19.4294 18.5915 20.1437 18.045 20.7613 17.3986C21.4196 16.7217 21.9289 16.0078 22.1921 15.4333C22.2217 15.1621 22.3436 14.9094 22.5372 14.7172C23.1289 14.1237 24.1989 14.2411 24.5716 15.2172L25.2597 17.0192L25.2602 17.019ZM31.5456 6.66846C31.4217 6.67797 31.2991 6.63819 31.2044 6.55775C31.1096 6.47732 31.0505 6.36275 31.0399 6.23895C31.0292 6.11516 31.0678 5.99216 31.1474 5.89671C31.2269 5.80126 31.3409 5.74107 31.4646 5.72925L34.0885 5.49971C34.213 5.48897 34.3367 5.52814 34.4324 5.60861C34.5281 5.68907 34.5878 5.80425 34.5986 5.92879L34.8281 8.55255C34.834 8.61451 34.8276 8.67702 34.8091 8.73647C34.7907 8.79592 34.7607 8.85114 34.7209 8.89894C34.681 8.94673 34.6321 8.98616 34.5769 9.01495C34.5217 9.04374 34.4614 9.06132 34.3994 9.06667C34.3374 9.07202 34.2749 9.06503 34.2156 9.04612C34.1563 9.02721 34.1014 8.99675 34.0539 8.95648C34.0065 8.91622 33.9675 8.86696 33.9391 8.81154C33.9108 8.75612 33.8937 8.69564 33.8889 8.63359L33.7585 7.14292L30.6698 10.8238C30.5897 10.9195 30.4748 10.9795 30.3505 10.9906C30.2262 11.0016 30.1026 10.9628 30.0068 10.8827C29.9111 10.8026 29.8511 10.6878 29.8401 10.5634C29.829 10.4391 29.8678 10.3155 29.9479 10.2197L33.0374 6.53792L31.5456 6.66846ZM38.6882 16.9433C38.6368 16.9084 38.5929 16.8635 38.559 16.8115C38.5251 16.7594 38.5019 16.7011 38.4906 16.64C38.4794 16.5789 38.4804 16.5162 38.4936 16.4555C38.5068 16.3948 38.5319 16.3373 38.5675 16.2864C38.6031 16.2354 38.6484 16.1921 38.7009 16.1588C38.7534 16.1255 38.8119 16.103 38.8732 16.0925C38.9344 16.082 38.9971 16.0838 39.0577 16.0977C39.1182 16.1116 39.1754 16.1375 39.2259 16.1737L41.3829 17.6843C41.485 17.7556 41.5546 17.8645 41.5763 17.9872C41.5981 18.1098 41.5703 18.236 41.4989 18.3381L39.9883 20.4951C39.9156 20.5937 39.8073 20.6599 39.6864 20.6797C39.5656 20.6996 39.4418 20.6714 39.3414 20.6012C39.2411 20.5311 39.1721 20.4245 39.1492 20.3042C39.1263 20.1839 39.1513 20.0594 39.2189 19.9573L40.0783 18.7298L35.3432 19.5644C35.2207 19.5845 35.0952 19.5555 34.994 19.4836C34.8928 19.4117 34.8241 19.3028 34.8027 19.1806C34.7814 19.0583 34.8091 18.9325 34.88 18.8306C34.9508 18.7287 35.059 18.6589 35.1811 18.6363L39.915 17.8016L38.6884 16.9422L38.6882 16.9433ZM37.5518 29.4052C37.5358 29.3455 37.5318 29.2832 37.5399 29.2219C37.548 29.1606 37.5681 29.1015 37.599 29.048C37.63 28.9945 37.6712 28.9476 37.7203 28.91C37.7693 28.8724 37.8253 28.8448 37.8851 28.8289C37.9448 28.8129 38.0071 28.8089 38.0684 28.817C38.1297 28.8251 38.1887 28.8452 38.2423 28.8761C38.2958 28.9071 38.3427 28.9483 38.3803 28.9974C38.4179 29.0464 38.4454 29.1024 38.4614 29.1622L39.1431 31.7059C39.159 31.7656 39.1631 31.8279 39.155 31.8892C39.1469 31.9505 39.1268 32.0096 39.0958 32.0631C39.0649 32.1167 39.0237 32.1636 38.9746 32.2012C38.9255 32.2388 38.8695 32.2663 38.8098 32.2823L36.266 32.964C36.1454 32.9962 36.0169 32.9792 35.9088 32.9167C35.8008 32.8542 35.7219 32.7513 35.6897 32.6306C35.6575 32.51 35.6745 32.3815 35.737 32.2734C35.7995 32.1654 35.9024 32.0865 36.023 32.0543L37.4708 31.6664L33.3079 29.2633C33.2545 29.2326 33.2076 29.1917 33.1699 29.1428C33.1323 29.094 33.1047 29.0382 33.0886 28.9787C33.0725 28.9192 33.0683 28.8571 33.0763 28.796C33.0842 28.7349 33.1041 28.6759 33.1348 28.6224C33.1655 28.569 33.2064 28.5221 33.2553 28.4845C33.3041 28.4469 33.3599 28.4192 33.4194 28.4031C33.4789 28.3871 33.541 28.3829 33.6021 28.3908C33.6632 28.3987 33.7222 28.4186 33.7757 28.4493L37.94 30.8537L37.5518 29.4052ZM28.6715 38.2224C28.6973 38.1658 28.7341 38.115 28.7797 38.0727C28.8253 38.0304 28.8788 37.9976 28.9371 37.9761C28.9954 37.9545 29.0574 37.9448 29.1196 37.9474C29.1817 37.9499 29.2427 37.9647 29.299 37.991C29.3554 38.0172 29.406 38.0544 29.448 38.1003C29.4899 38.1461 29.5224 38.1999 29.5435 38.2584C29.5646 38.3168 29.5739 38.3789 29.5709 38.441C29.5679 38.5031 29.5526 38.564 29.526 38.6202L28.4129 41.0072C28.3601 41.1205 28.2645 41.2082 28.1471 41.251C28.0297 41.2938 27.9001 41.2882 27.7868 41.2355L25.4002 40.1225C25.2883 40.0688 25.2021 39.9733 25.1602 39.8565C25.1184 39.7397 25.1243 39.6111 25.1766 39.4986C25.229 39.3861 25.3236 39.2988 25.4399 39.2556C25.5562 39.2125 25.6848 39.2169 25.7979 39.268L27.1557 39.9011L25.5116 35.384C25.4906 35.326 25.4812 35.2644 25.484 35.2027C25.4868 35.141 25.5017 35.0805 25.5278 35.0246C25.554 34.9687 25.5909 34.9185 25.6365 34.8768C25.6821 34.8352 25.7354 34.8029 25.7934 34.7819C25.8515 34.7608 25.9131 34.7514 25.9748 34.7542C26.0364 34.757 26.097 34.7719 26.1529 34.7981C26.2088 34.8242 26.259 34.8611 26.3007 34.9067C26.3423 34.9523 26.3746 35.0056 26.3956 35.0637L28.0385 39.5793L28.6713 38.2221L28.6715 38.2224ZM16.2027 39.268C16.3158 39.2169 16.4444 39.2125 16.5608 39.2556C16.6771 39.2988 16.7717 39.3861 16.824 39.4986C16.8764 39.6111 16.8823 39.7397 16.8404 39.8565C16.7985 39.9733 16.7123 40.0688 16.6004 40.1225L14.2134 41.2355C14.1001 41.2882 13.9705 41.2938 13.8531 41.251C13.7357 41.2082 13.6401 41.1205 13.5873 41.0072L12.4742 38.6202C12.4225 38.507 12.4177 38.378 12.4607 38.2613C12.5038 38.1446 12.5912 38.0496 12.704 37.9971C12.8168 37.9446 12.9457 37.9388 13.0628 37.981C13.1798 38.0232 13.2754 38.11 13.3287 38.2224L13.9619 39.5793L15.6055 35.0634C15.6479 34.9462 15.7353 34.8506 15.8482 34.7978C15.9611 34.745 16.0904 34.7391 16.2076 34.7816C16.3248 34.8241 16.4204 34.9114 16.4732 35.0243C16.5261 35.1373 16.5319 35.2666 16.4894 35.3838L14.8453 39.9008L16.2032 39.2677L16.2027 39.268ZM5.97754 32.0546C6.03727 32.0705 6.09327 32.0981 6.14234 32.1357C6.19142 32.1733 6.2326 32.2202 6.26356 32.2737C6.29451 32.3272 6.31461 32.3863 6.32273 32.4476C6.33084 32.5089 6.3268 32.5712 6.31085 32.6309C6.29489 32.6906 6.26732 32.7466 6.22972 32.7957C6.19212 32.8448 6.14522 32.886 6.09171 32.9169C6.03819 32.9479 5.9791 32.968 5.91781 32.9761C5.85652 32.9842 5.79423 32.9802 5.73451 32.9642L3.19076 32.2826C3.13103 32.2666 3.07502 32.239 3.02595 32.2014C2.97688 32.1638 2.93569 32.1169 2.90474 32.0634C2.87379 32.0099 2.85369 31.9508 2.84559 31.8895C2.83748 31.8282 2.84152 31.7659 2.85749 31.7062L3.53915 29.1624C3.55403 29.1016 3.5809 29.0443 3.61821 28.9939C3.65551 28.9436 3.70249 28.9012 3.75639 28.8693C3.81029 28.8373 3.87003 28.8164 3.9321 28.8079C3.99417 28.7993 4.05732 28.8032 4.11786 28.8194C4.1784 28.8355 4.2351 28.8636 4.28464 28.902C4.33419 28.9403 4.37558 28.9882 4.40638 29.0428C4.43719 29.0973 4.45679 29.1575 4.46405 29.2197C4.4713 29.282 4.46606 29.345 4.44862 29.4052L4.06053 30.8537L8.22489 28.4493C8.27834 28.4186 8.33731 28.3987 8.39844 28.3908C8.45958 28.3829 8.52167 28.3871 8.58118 28.4031C8.64069 28.4192 8.69646 28.4469 8.74529 28.4845C8.79411 28.5221 8.83505 28.569 8.86577 28.6224C8.89648 28.6759 8.91637 28.7349 8.92429 28.796C8.93221 28.8571 8.92801 28.9192 8.91194 28.9787C8.89586 29.0382 8.86822 29.094 8.8306 29.1428C8.79297 29.1917 8.74609 29.2326 8.69265 29.2633L4.52975 31.6666L5.97754 32.0546ZM2.78143 19.9573C2.85275 20.0594 2.8806 20.1856 2.85885 20.3082C2.8371 20.4308 2.76754 20.5398 2.66546 20.6111C2.56339 20.6824 2.43716 20.7102 2.31456 20.6885C2.19195 20.6667 2.08301 20.5972 2.01169 20.4951L0.500997 18.3381C0.429687 18.236 0.401849 18.1098 0.423606 17.9872C0.445363 17.8645 0.514933 17.7556 0.617013 17.6843L2.77404 16.1737C2.82454 16.1375 2.88172 16.1116 2.94227 16.0977C3.00282 16.0838 3.06553 16.082 3.12677 16.0925C3.18801 16.103 3.24656 16.1255 3.29903 16.1588C3.35149 16.1921 3.39683 16.2354 3.43241 16.2864C3.468 16.3373 3.49312 16.3948 3.50632 16.4555C3.51952 16.5162 3.52053 16.5789 3.50931 16.64C3.49809 16.7011 3.47485 16.7594 3.44093 16.8115C3.40702 16.8635 3.36311 16.9084 3.31176 16.9433L2.085 17.8027L6.81947 18.6363C6.88072 18.6466 6.93933 18.6689 6.99192 18.702C7.04452 18.735 7.09006 18.7781 7.12592 18.8289C7.16178 18.8796 7.18726 18.9369 7.20089 18.9975C7.21452 19.0581 7.21603 19.1208 7.20533 19.182C7.19463 19.2432 7.17194 19.3016 7.13856 19.354C7.10518 19.4064 7.06177 19.4517 7.01083 19.4872C6.95989 19.5228 6.90242 19.5479 6.84173 19.5611C6.78104 19.5744 6.71834 19.5755 6.65722 19.5644L1.92206 18.7298L2.78143 19.9573ZM8.11154 8.63359C8.0998 8.75736 8.03965 8.87148 7.94417 8.9511C7.84869 9.03073 7.72562 9.06941 7.60175 9.05872C7.47789 9.04803 7.36326 8.98884 7.28283 8.89404C7.20241 8.79924 7.16269 8.6765 7.17233 8.55255L7.40187 5.92879C7.41262 5.80425 7.4724 5.68907 7.56807 5.60861C7.66373 5.52814 7.78744 5.48897 7.91199 5.49971L10.5357 5.72925C10.6594 5.74107 10.7735 5.80126 10.853 5.89671C10.9325 5.99216 10.9712 6.11516 10.9605 6.23895C10.9498 6.36275 10.8907 6.47732 10.796 6.55775C10.7013 6.63819 10.5787 6.67797 10.4548 6.66846L8.96301 6.53792L12.0525 10.2197C12.0921 10.2671 12.1221 10.3219 12.1406 10.3809C12.1591 10.4398 12.1658 10.5019 12.1603 10.5634C12.1548 10.625 12.1373 10.6849 12.1087 10.7396C12.0801 10.7944 12.0409 10.843 11.9935 10.8827C11.9461 10.9224 11.8914 10.9523 11.8324 10.9708C11.7735 10.9893 11.7114 10.996 11.6499 10.9906C11.5883 10.9851 11.5284 10.9675 11.4736 10.9389C11.4189 10.9103 11.3702 10.8712 11.3306 10.8238L8.2419 7.14292L8.11154 8.63359ZM19.4711 3.38651C19.3827 3.4749 19.2628 3.52457 19.1378 3.52457C19.0128 3.52457 18.8929 3.4749 18.8045 3.38651C18.7161 3.29811 18.6664 3.17821 18.6664 3.0532C18.6664 2.92818 18.7161 2.80829 18.8045 2.71989L20.6669 0.857537C20.7107 0.813769 20.7626 0.779049 20.8198 0.755362C20.877 0.731674 20.9383 0.719482 21.0002 0.719482C21.0621 0.719482 21.1234 0.731674 21.1806 0.755362C21.2377 0.779049 21.2897 0.813769 21.3335 0.857537L23.1959 2.71989C23.2397 2.76366 23.2744 2.81562 23.2981 2.87281C23.3218 2.93 23.334 2.9913 23.334 3.0532C23.334 3.1151 23.3218 3.17639 23.2981 3.23358C23.2744 3.29077 23.2397 3.34273 23.1959 3.38651C23.1521 3.43028 23.1002 3.465 23.043 3.48869C22.9858 3.51237 22.9245 3.52457 22.8626 3.52457C22.8007 3.52457 22.7394 3.51237 22.6822 3.48869C22.625 3.465 22.573 3.43028 22.5293 3.38651L21.4716 2.32887V7.13364C21.4716 7.25868 21.422 7.37859 21.3336 7.46701C21.2451 7.55542 21.1252 7.60509 21.0002 7.60509C20.8751 7.60509 20.7552 7.55542 20.6668 7.46701C20.5784 7.37859 20.5287 7.25868 20.5287 7.13364V2.32887L19.4711 3.38651ZM29.5555 13.7364C30.0077 13.738 30.4409 13.9184 30.7606 14.2381C31.0803 14.5579 31.2607 14.991 31.2623 15.4432V26.925C31.2607 27.3772 31.0803 27.8104 30.7606 28.1301C30.4409 28.4498 30.0077 28.6302 29.5555 28.6318H23.7533C23.6739 28.6318 23.5958 28.6518 23.5263 28.69C23.4567 28.7282 23.3979 28.7834 23.3554 28.8504L20.9668 32.088L18.6301 28.8285C18.5865 28.7676 18.5291 28.7179 18.4624 28.6837C18.3958 28.6495 18.322 28.6316 18.2471 28.6317H12.4448C11.9927 28.63 11.5595 28.4497 11.2398 28.1299C10.9201 27.8102 10.7397 27.377 10.738 26.9249V15.4432C10.7397 14.991 10.9201 14.5579 11.2398 14.2381C11.5595 13.9184 11.9927 13.738 12.4448 13.7364H29.5555ZM12.4448 12.7936H29.5555C30.2577 12.7953 30.9306 13.075 31.4272 13.5716C31.9237 14.0681 32.2034 14.741 32.2051 15.4432V26.925C32.2034 27.6272 31.9237 28.3002 31.4272 28.7967C30.9306 29.2932 30.2577 29.5729 29.5555 29.5747H23.99L21.3402 33.1664C21.2959 33.2259 21.2383 33.2742 21.172 33.3074C21.1056 33.3405 21.0324 33.3575 20.9582 33.3571C20.8841 33.3567 20.8111 33.3389 20.7451 33.305C20.6791 33.2712 20.622 33.2223 20.5784 33.1623L18.0054 29.5747H12.4452C11.743 29.5729 11.0701 29.2932 10.5736 28.7967C10.077 28.3002 9.79732 27.6272 9.79557 26.925V15.4432C9.79732 14.7411 10.077 14.0682 10.5734 13.5717C11.0699 13.0752 11.7427 12.7954 12.4448 12.7936Z" fill="black"/>
</svg>
