<svg width="44" height="44" viewBox="0 0 44 44" fill="none" xmlns="http://www.w3.org/2000/svg">
<path d="M40.5621 24.0625L37.0799 10.6418C37.4392 10.4435 37.7494 10.1671 37.9875 9.83301C38.2257 9.4989 38.3859 9.11557 38.4561 8.71131C38.5264 8.30704 38.505 7.89216 38.3936 7.49727C38.2821 7.10237 38.0834 6.73754 37.8121 6.42968C37.5408 6.12183 37.2039 5.87881 36.8262 5.71854C36.4484 5.55828 36.0395 5.48486 35.6297 5.50371C35.2198 5.52256 34.8193 5.63319 34.4579 5.82745C34.0965 6.0217 33.7833 6.29462 33.5414 6.62608L24.7153 3.0937C24.6536 2.59868 24.4582 2.12984 24.15 1.73762C23.8417 1.3454 23.4324 1.04466 22.966 0.86775C22.4996 0.690841 21.9937 0.644466 21.5029 0.733614C21.0121 0.822762 20.5549 1.04406 20.1805 1.37369C19.8061 1.70332 19.5286 2.12881 19.378 2.60437C19.2274 3.07993 19.2093 3.58756 19.3257 4.07263C19.4421 4.5577 19.6886 5.00185 20.0386 5.35728C20.3886 5.71272 20.8289 5.96598 21.3121 6.08983V10.3812C20.5362 10.5408 19.8391 10.9629 19.3381 11.5766C18.8372 12.1902 18.5631 12.9578 18.5621 13.75C18.5654 14.6336 18.794 15.5017 19.2263 16.2724C17.8079 16.7784 16.8427 17.6474 16.5773 18.6711L5.90251 20.8058C5.74107 20.4747 5.51476 20.1794 5.23701 19.9375L9.73738 10.9374C10.1952 11.0384 10.6712 11.0207 11.1202 10.886C11.5693 10.7513 11.9764 10.504 12.303 10.1677C12.6296 9.83135 12.8648 9.4171 12.9862 8.96428C13.1076 8.51147 13.1113 8.03513 12.9968 7.58051C12.8823 7.12589 12.6535 6.70809 12.3321 6.36677C12.0107 6.02546 11.6074 5.77198 11.1605 5.6304C10.7136 5.48883 10.2379 5.46385 9.7786 5.55786C9.31931 5.65187 8.89168 5.86173 8.53632 6.16751L6.00564 4.39583C6.20859 3.84764 6.23121 3.24898 6.07021 2.68704C5.90921 2.12511 5.573 1.62925 5.11055 1.27171C4.6481 0.914173 4.08357 0.713624 3.4992 0.699281C2.91483 0.684938 2.34115 0.85755 1.86172 1.19197C1.38228 1.52639 1.02215 2.00516 0.833775 2.55852C0.6454 3.11188 0.638625 3.71093 0.814437 4.26841C0.990249 4.82589 1.33946 5.31267 1.81121 5.65785C2.28296 6.00303 2.85259 6.18857 3.43714 6.18745C4.08992 6.18479 4.72007 5.94791 5.21295 5.51989L7.74432 7.29089C7.54191 7.81181 7.5071 8.38291 7.64476 8.92456C7.78242 9.46621 8.08569 9.95139 8.51226 10.3125L4.01189 19.3125C3.30836 19.1576 2.57213 19.2856 1.96216 19.6689C1.3522 20.0521 0.917418 20.6599 0.751698 21.361C0.585979 22.062 0.702613 22.8001 1.07642 23.4159C1.45023 24.0317 2.05122 24.4758 2.74964 24.6523V33.0976C2.3193 33.2092 1.92251 33.4236 1.59337 33.7224C1.26423 34.0213 1.01259 34.3956 0.86008 34.8131C0.707574 35.2307 0.658765 35.6791 0.717851 36.1197C0.776936 36.5604 0.942148 36.98 1.19928 37.3427C1.45642 37.7053 1.79778 38.0001 2.19402 38.2017C2.59026 38.4033 3.02953 38.5056 3.47406 38.4998C3.91859 38.4941 4.35507 38.3805 4.74599 38.1688C5.1369 37.9571 5.47056 37.6536 5.71826 37.2845L11.7346 39.4075C11.7079 39.562 11.6921 39.7182 11.6871 39.875C11.6785 40.7159 11.9753 41.5313 12.5224 42.17C13.0695 42.8087 13.8297 43.2271 14.6619 43.3478C15.4942 43.4684 16.3419 43.283 17.0479 42.826C17.7538 42.3689 18.2699 41.6713 18.5004 40.8626C18.7309 40.0538 18.6602 39.1889 18.3014 38.4284C17.9425 37.6679 17.3199 37.0633 16.5492 36.727C15.7784 36.3907 14.9118 36.3455 14.1102 36.5997C13.3086 36.854 12.6264 37.3904 12.1904 38.1095L6.16376 35.9823C6.17064 35.9046 6.18714 35.8297 6.18714 35.75C6.18486 35.1421 5.98122 34.552 5.60806 34.0722C5.23489 33.5923 4.71324 33.2495 4.12464 33.0976V24.6523C4.68641 24.5063 5.18731 24.1857 5.55514 23.7367C5.92297 23.2877 6.13873 22.7335 6.17132 22.1539L16.6523 20.0578C17.1266 21.331 18.6996 22.3093 20.7422 22.5974L18.1455 26.3099C17.8399 26.1908 17.5152 26.1281 17.1871 26.125C16.7132 26.1243 16.2472 26.2461 15.8342 26.4786C15.4213 26.711 15.0754 27.0463 14.8301 27.4518C14.5849 27.8573 14.4486 28.3193 14.4345 28.793C14.4203 29.2667 14.5289 29.736 14.7495 30.1554C14.9702 30.5748 15.2954 30.93 15.6938 31.1867C16.0922 31.4434 16.5501 31.5927 17.0232 31.6203C17.4963 31.6479 17.9685 31.5527 18.394 31.344C18.8195 31.1354 19.1839 30.8203 19.4518 30.4294L28.9255 33.8745C28.896 34.0398 28.879 34.2071 28.8746 34.375C28.8779 35.2586 29.1065 36.1267 29.5388 36.8974C27.8592 37.4962 26.8121 38.6051 26.8121 39.875C26.8121 41.8 29.228 43.3125 32.3121 43.3125C35.3963 43.3125 37.8121 41.8 37.8121 39.875C37.8121 38.6051 36.7651 37.4962 35.0855 36.8974C35.5178 36.1267 35.7464 35.2586 35.7496 34.375C35.7517 33.6263 35.5086 32.8976 35.0576 32.3001C34.6066 31.7025 33.9724 31.269 33.2519 31.0658C32.5313 30.8626 31.7641 30.9007 31.0673 31.1745C30.3705 31.4483 29.7825 31.9426 29.393 32.582L19.911 29.1341C19.9193 29.0475 19.9371 28.9636 19.9371 28.875C19.9345 28.2222 19.6976 27.592 19.2696 27.0991L22.3633 22.6765C25.2721 22.5616 27.4996 21.1 27.4996 19.25C27.4996 17.9801 26.4526 16.8712 24.773 16.2724C25.2053 15.5017 25.4339 14.6336 25.4371 13.75C25.4361 12.9578 25.1621 12.1902 24.6611 11.5766C24.1602 10.9629 23.463 10.5408 22.6871 10.3812V6.08983C23.096 5.98499 23.4752 5.78746 23.7954 5.51254C24.1156 5.23763 24.3683 4.89269 24.5338 4.50445L33.0347 7.9062C33.0157 8.01992 33.004 8.13474 32.9996 8.24995C32.9996 8.9793 33.2894 9.67877 33.8051 10.1945C34.3208 10.7102 35.0203 11 35.7496 11L39.2291 24.4206C38.8521 24.6264 38.5284 24.9174 38.2838 25.2704L33.6596 23.6204C33.6672 23.5386 33.6844 23.4602 33.6844 23.3763C33.6849 22.7177 33.4491 22.0807 33.0197 21.5813C32.5903 21.0819 31.996 20.7531 31.3447 20.6548C30.6935 20.5565 30.0286 20.6953 29.4709 21.0458C28.9133 21.3963 28.5 21.9353 28.3062 22.5647C28.1123 23.1942 28.1509 23.8723 28.4147 24.4758C28.6786 25.0792 29.1503 25.568 29.744 25.8531C30.3378 26.1381 31.0141 26.2007 31.65 26.0293C32.286 25.8579 32.8393 25.4639 33.2093 24.9191L37.8341 26.5691C37.8266 26.6509 37.8094 26.7293 37.8094 26.8125C37.8094 27.3563 37.9707 27.888 38.2728 28.3403C38.575 28.7925 39.0045 29.145 39.507 29.3531C40.0095 29.5613 40.5624 29.6157 41.0959 29.5096C41.6293 29.4035 42.1193 29.1416 42.5039 28.757C42.8885 28.3724 43.1504 27.8824 43.2565 27.3489C43.3627 26.8155 43.3082 26.2626 43.1001 25.7601C42.8919 25.2576 42.5394 24.8281 42.0872 24.5259C41.635 24.2237 41.1033 24.0625 40.5594 24.0625H40.5621ZM10.3121 6.87495C10.5841 6.87495 10.8499 6.95559 11.076 7.10668C11.3022 7.25777 11.4784 7.47251 11.5825 7.72376C11.6865 7.97501 11.7138 8.25148 11.6607 8.5182C11.6077 8.78492 11.4767 9.02993 11.2844 9.22222C11.0921 9.41452 10.8471 9.54548 10.5804 9.59853C10.3137 9.65159 10.0372 9.62436 9.78595 9.52029C9.5347 9.41621 9.31995 9.23998 9.16887 9.01386C9.01778 8.78774 8.93714 8.5219 8.93714 8.24995C8.93714 7.88528 9.082 7.53554 9.33986 7.27768C9.59773 7.01982 9.94746 6.87495 10.3121 6.87495ZM3.43714 4.81245C3.16519 4.81245 2.89934 4.73181 2.67323 4.58072C2.44711 4.42963 2.27087 4.21489 2.1668 3.96364C2.06273 3.71239 2.0355 3.43593 2.08856 3.1692C2.14161 2.90248 2.27257 2.65748 2.46486 2.46518C2.65716 2.27288 2.90216 2.14192 3.16889 2.08887C3.43561 2.03582 3.71208 2.06305 3.96333 2.16712C4.21457 2.27119 4.42932 2.44742 4.58041 2.67354C4.73149 2.89966 4.81214 3.1655 4.81214 3.43745C4.81214 3.80212 4.66727 4.15186 4.40941 4.40972C4.15155 4.66758 3.80181 4.81245 3.43714 4.81245ZM15.1246 37.8125C15.5326 37.8125 15.9313 37.9334 16.2705 38.16C16.6097 38.3867 16.874 38.7088 17.0301 39.0857C17.1862 39.4625 17.2271 39.8772 17.1475 40.2773C17.0679 40.6774 16.8715 41.0449 16.583 41.3334C16.2946 41.6218 15.9271 41.8182 15.527 41.8978C15.1269 41.9774 14.7122 41.9366 14.3354 41.7805C13.9585 41.6243 13.6364 41.36 13.4097 41.0208C13.1831 40.6816 13.0621 40.2829 13.0621 39.875C13.0621 39.3279 13.2794 38.8033 13.6662 38.4165C14.053 38.0298 14.5776 37.8125 15.1246 37.8125ZM4.81214 35.75C4.81214 36.0219 4.73149 36.2877 4.58041 36.5139C4.42932 36.74 4.21457 36.9162 3.96333 37.0203C3.71208 37.1244 3.43561 37.1516 3.16889 37.0985C2.90216 37.0455 2.65716 36.9145 2.46486 36.7222C2.27257 36.5299 2.14161 36.2849 2.08856 36.0182C2.0355 35.7515 2.06273 35.475 2.1668 35.2238C2.27087 34.9725 2.44711 34.7578 2.67323 34.6067C2.89934 34.4556 3.16519 34.375 3.43714 34.375C3.80181 34.375 4.15155 34.5198 4.40941 34.7777C4.66727 35.0355 4.81214 35.3853 4.81214 35.75ZM3.43714 23.375C3.16519 23.375 2.89934 23.2943 2.67323 23.1432C2.44711 22.9921 2.27087 22.7774 2.1668 22.5261C2.06273 22.2749 2.0355 21.9984 2.08856 21.7317C2.14161 21.465 2.27257 21.22 2.46486 21.0277C2.65716 20.8354 2.90216 20.7044 3.16889 20.6514C3.43561 20.5983 3.71208 20.6255 3.96333 20.7296C4.21457 20.8337 4.42932 21.0099 4.58041 21.236C4.73149 21.4622 4.81214 21.728 4.81214 22C4.81214 22.3646 4.66727 22.7144 4.40941 22.9722C4.15155 23.2301 3.80181 23.375 3.43714 23.375ZM36.4371 39.875C36.4371 40.8505 34.7431 41.9375 32.3121 41.9375C29.8811 41.9375 28.1871 40.8505 28.1871 39.875C28.1871 39.1661 29.0376 38.4676 30.2984 38.0943L31.7422 40.2565C31.805 40.3507 31.89 40.4279 31.9898 40.4813C32.0896 40.5347 32.201 40.5626 32.3142 40.5626C32.4274 40.5626 32.5388 40.5347 32.6386 40.4813C32.7384 40.4279 32.8234 40.3507 32.8862 40.2565L34.3299 38.0943C35.5867 38.4676 36.4371 39.1661 36.4371 39.875ZM32.3121 32.3125C32.8591 32.3125 33.3837 32.5298 33.7705 32.9165C34.1573 33.3033 34.3746 33.8279 34.3746 34.375C34.3756 35.1358 34.1504 35.8798 33.7277 36.5124L32.3121 38.6375L30.8966 36.5145C30.4735 35.8812 30.2483 35.1365 30.2496 34.375C30.2496 33.8279 30.4669 33.3033 30.8537 32.9165C31.2405 32.5298 31.7651 32.3125 32.3121 32.3125ZM17.1871 30.25C16.9152 30.25 16.6493 30.1693 16.4232 30.0182C16.1971 29.8671 16.0209 29.6524 15.9168 29.4011C15.8127 29.1499 15.7855 28.8734 15.8386 28.6067C15.8916 28.34 16.0226 28.095 16.2149 27.9027C16.4072 27.7104 16.6522 27.5794 16.9189 27.5264C17.1856 27.4733 17.4621 27.5005 17.7133 27.6046C17.9646 27.7087 18.1793 27.8849 18.3304 28.111C18.4815 28.3372 18.5621 28.603 18.5621 28.875C18.5621 29.2396 18.4173 29.5894 18.1594 29.8472C17.9015 30.1051 17.5518 30.25 17.1871 30.25ZM26.1246 19.25C26.1246 20.2255 24.4306 21.3125 21.9996 21.3125C19.5686 21.3125 17.8746 20.2255 17.8746 19.25C17.8746 18.5411 18.7251 17.8426 19.9859 17.4693L21.4297 19.6315C21.4925 19.7257 21.5775 19.8029 21.6773 19.8563C21.7771 19.9097 21.8885 19.9376 22.0017 19.9376C22.1149 19.9376 22.2263 19.9097 22.3261 19.8563C22.4259 19.8029 22.5109 19.7257 22.5737 19.6315L24.0174 17.4693C25.2742 17.8426 26.1246 18.5411 26.1246 19.25ZM24.0621 13.75C24.0631 14.5108 23.8379 15.2548 23.4152 15.8874L21.9996 18.0125L20.5841 15.8895C20.161 15.2562 19.9358 14.5115 19.9371 13.75C19.9371 13.2029 20.1544 12.6783 20.5412 12.2915C20.928 11.9047 21.4526 11.6875 21.9996 11.6875C22.5466 11.6875 23.0712 11.9047 23.458 12.2915C23.8448 12.6783 24.0621 13.2029 24.0621 13.75ZM21.9996 4.81245C21.7277 4.81245 21.4618 4.73181 21.2357 4.58072C21.0096 4.42963 20.8334 4.21489 20.7293 3.96364C20.6252 3.71239 20.598 3.43593 20.6511 3.1692C20.7041 2.90248 20.8351 2.65748 21.0274 2.46518C21.2197 2.27288 21.4647 2.14192 21.7314 2.08887C21.9981 2.03582 22.2746 2.06305 22.5258 2.16712C22.7771 2.27119 22.9918 2.44742 23.1429 2.67354C23.294 2.89966 23.3746 3.1655 23.3746 3.43745C23.3746 3.80212 23.2298 4.15186 22.9719 4.40972C22.714 4.66758 22.3643 4.81245 21.9996 4.81245ZM34.3746 8.24995C34.3746 7.978 34.4553 7.71216 34.6064 7.48604C34.7575 7.25992 34.9722 7.08369 35.2234 6.97962C35.4747 6.87555 35.7512 6.84832 36.0179 6.90137C36.2846 6.95443 36.5296 7.08538 36.7219 7.27768C36.9142 7.46998 37.0452 7.71498 37.0982 7.9817C37.1513 8.24843 37.124 8.52489 37.02 8.77614C36.9159 9.02739 36.7397 9.24213 36.5135 9.39322C36.2874 9.54431 36.0216 9.62495 35.7496 9.62495C35.385 9.62495 35.0352 9.48009 34.7774 9.22222C34.5195 8.96436 34.3746 8.61462 34.3746 8.24995ZM30.9371 24.75C30.6652 24.75 30.3993 24.6693 30.1732 24.5182C29.9471 24.3671 29.7709 24.1524 29.6668 23.9011C29.5627 23.6499 29.5355 23.3734 29.5886 23.1067C29.6416 22.84 29.7726 22.595 29.9649 22.4027C30.1572 22.2104 30.4022 22.0794 30.6689 22.0264C30.9356 21.9733 31.2121 22.0005 31.4633 22.1046C31.7146 22.2087 31.9293 22.3849 32.0804 22.611C32.2315 22.8372 32.3121 23.103 32.3121 23.375C32.3121 23.7396 32.1673 24.0894 31.9094 24.3472C31.6515 24.6051 31.3018 24.75 30.9371 24.75ZM40.5621 28.1875C40.2902 28.1875 40.0243 28.1068 39.7982 27.9557C39.5721 27.8046 39.3959 27.5899 39.2918 27.3386C39.1877 27.0874 39.1605 26.8109 39.2136 26.5442C39.2666 26.2775 39.3976 26.0325 39.5899 25.8402C39.7822 25.6479 40.0272 25.5169 40.2939 25.4639C40.5606 25.4108 40.8371 25.438 41.0883 25.5421C41.3396 25.6462 41.5543 25.8224 41.7054 26.0485C41.8565 26.2747 41.9371 26.5405 41.9371 26.8125C41.9371 27.1771 41.7923 27.5269 41.5344 27.7847C41.2765 28.0426 40.9268 28.1875 40.5621 28.1875Z" fill="black"/>
</svg>
